<?xml version="1.0" encoding="utf-8"?><!DOCTYPE svg  PUBLIC '-//W3C//DTD SVG 1.1//EN'  'http://www.w3.org/Graphics/SVG/1.1/DTD/svg11.dtd'><svg viewBox="0 0 525 512" xmlns="http://www.w3.org/2000/svg" xmlns:xlink="http://www.w3.org/1999/xlink"><style>:root>svg{display:none}:root>svg:target{display:block}</style><svg viewBox="0 0 525 120" id="avocode"><path d="M45 0C22 0 0 42.5 0 75c0 24.9 20.1 45 45 45s45-20.1 45-45C90 42.5 68 0 45 0zm0 97.5c-12.4 0-22.5-10.1-22.5-22.5 0-16.7 11.4-37.5 22.5-37.5S67.5 58.3 67.5 75c0 12.4-10.1 22.5-22.5 22.5zM170.6 96.4h-9.3l-.8-5.4c-3.6 4.4-8.8 6.5-15.5 6.5-6.2 0-11-1.6-14.6-4.9-3.6-3.3-5.3-7.5-5.3-12.8 0-5.3 1.8-9.6 5.5-12.9 3.7-3.4 8.6-5.1 14.7-5.1 5.9 0 10.4 1.7 13.7 5V62c0-4.7-1.2-8.2-3.5-10.6-2.3-2.4-5.6-3.6-9.8-3.6-2.6 0-5.1.3-7.5.9-2.4.6-4.1 1.2-5.1 1.8l-1.7.9-3-9.1c.5-.4 1.3-.8 2.2-1.4.9-.5 3.1-1.2 6.4-2.1 3.3-.9 6.9-1.3 10.6-1.3 7.2 0 12.8 2 16.9 6.1 4.1 4.1 6.1 9.9 6.1 17.5v35.3zm-14.2-10.2c2.1-1.8 3.2-4.1 3.2-6.9s-1.1-5.1-3.2-6.9c-2.1-1.8-5-2.7-8.5-2.7-3.4 0-6.1.9-8.2 2.7-2.1 1.8-3.2 4.1-3.2 6.9s1.1 5.1 3.2 6.9c2.1 1.8 4.8 2.7 8.2 2.7 3.5 0 6.3-.9 8.5-2.7zM178.7 38.6h12.4l12.7 41.2 12.7-41.2h11.7l-19.5 57.7H198l-19.3-57.7zM235.8 60.4c0-7 2.2-12.6 6.5-16.7 4.3-4.2 9.9-6.2 16.7-6.2 6.9 0 12.5 2 16.7 6.1 4.2 4.1 6.3 9.6 6.3 16.5v14.4c0 7.1-2.2 12.6-6.5 16.8-4.3 4.1-9.9 6.2-16.8 6.2s-12.4-2-16.6-6c-4.2-4-6.2-9.5-6.2-16.6V60.4zm11.5 14.1c0 4 1.1 7.1 3.2 9.3 2.1 2.3 4.9 3.4 8.4 3.4s6.2-1.1 8.3-3.4c2.1-2.3 3.2-5.4 3.2-9.3V60.4c0-3.9-1.1-7-3.2-9.3s-4.9-3.4-8.3-3.4c-3.5 0-6.3 1.1-8.4 3.4s-3.2 5.4-3.2 9.3v14.1zM330.2 74.2h11.1v1.2c0 6.7-2.1 12-6.2 16-4.2 4-9.6 6-16.2 6-6.7 0-12-2-16.1-5.9-4.1-3.9-6.1-9.3-6.1-16.2V59.9c0-6.8 2.1-12.3 6.3-16.3s9.6-6.1 16.2-6.1 11.9 2 16 5.9c4.1 3.9 6.1 9.2 6.1 16v1h-11.1v-.7c0-3.6-1-6.5-3-8.7s-4.6-3.3-7.9-3.3c-3.4 0-6.1 1.1-8 3.3-2 2.2-3 5.1-3 8.9v15.2c0 3.8 1 6.7 3 8.9s4.7 3.3 8 3.3 5.9-1.1 7.9-3.2 3-5 3-8.6v-1.3zM356.2 60.4c0-7 2.2-12.6 6.5-16.7 4.3-4.2 9.9-6.2 16.7-6.2 6.9 0 12.5 2 16.7 6.1 4.2 4.1 6.3 9.6 6.3 16.5v14.4c0 7.1-2.2 12.6-6.5 16.8-4.3 4.1-9.9 6.2-16.8 6.2s-12.4-2-16.6-6c-4.2-4-6.2-9.5-6.2-16.6V60.4zm11.5 14.1c0 4 1.1 7.1 3.2 9.3 2.1 2.3 4.9 3.4 8.4 3.4s6.2-1.1 8.3-3.4c2.1-2.3 3.2-5.4 3.2-9.3V60.4c0-3.9-1.1-7-3.2-9.3-2.1-2.3-4.9-3.4-8.3-3.4-3.5 0-6.3 1.1-8.4 3.4-2.1 2.3-3.2 5.4-3.2 9.3v14.1zM463.4 96.4h-10.1l-.6-6.8c-3.4 5.3-8.6 7.9-15.5 7.9-6.2 0-11.1-1.9-14.6-5.6-3.5-3.7-5.3-8.9-5.3-15.6V59.1c0-6.8 1.8-12 5.5-15.9 3.6-3.8 8.6-5.7 14.8-5.7s11 2.2 14.3 6.5V17.5h11.6v78.9zm-11.6-36c0-3.9-1.1-7-3.2-9.3-2.1-2.3-4.9-3.4-8.3-3.4-3.5 0-6.3 1.1-8.4 3.4-2.1 2.3-3.2 5.4-3.2 9.3v14.1c0 4 1.1 7.1 3.2 9.3 2.1 2.3 4.9 3.4 8.4 3.4s6.2-1.1 8.3-3.4c2.1-2.3 3.2-5.4 3.2-9.3V60.4zM524.8 78.1c-.1.5-.2 1.2-.3 2.1-.1.9-.7 2.4-1.6 4.6-.9 2.2-2.1 4.2-3.5 5.9-1.5 1.7-3.7 3.3-6.7 4.7-3 1.4-6.5 2.1-10.5 2.1-6.9 0-12.4-2-16.6-6-4.2-4-6.2-9.5-6.2-16.6V60.4c0-7 2.2-12.6 6.5-16.7 4.3-4.2 9.9-6.2 16.7-6.2 6.8 0 12.2 2 16.3 6.1 4.1 4.1 6.2 9.6 6.2 16.5v8.3h-34.2v6.1c0 4 1.1 7.1 3.2 9.3 2.1 2.3 4.9 3.4 8.4 3.4 2 0 3.8-.4 5.3-1.2 1.5-.8 2.7-1.7 3.4-2.9.7-1.1 1.3-2.2 1.8-3.3.5-1.1.8-2 .8-2.9l.1-1.1 10.9 2.3zm-34-17.3h23.1v-1.5c0-3.9-1.1-7-3.2-9.3-2.1-2.3-4.9-3.4-8.3-3.4-3.5 0-6.3 1.1-8.4 3.4-2.1 2.3-3.2 5.4-3.2 9.3v1.5z"/></svg><svg version="1" viewBox="0 0 32 32" id="brackets_93792" xmlns="http://www.w3.org/2000/svg"><rect width="28" height="28" x="2" y="3" rx="1.5" ry="1.5" opacity=".2"/><rect width="28" height="28" x="2" y="2" rx="1.5" ry="1.5" fill="#29aae2"/><rect width="22" height="22" x="5" y="6" rx="1.5" ry="1.5" opacity=".2"/><rect width="22" height="22" x="5" y="5" rx="1.5" ry="1.5" fill="#fff"/><path d="M7 7v18h8v-4h-4V11h4V7H7zm10 0v4h4v10h-4v4h8V7h-8z" fill="#424242"/><path d="M3.5 2C2.669 2 2 2.669 2 3.5v1C2 3.669 2.669 3 3.5 3h25c.831 0 1.5.669 1.5 1.5v-1c0-.831-.669-1.5-1.5-1.5h-25z" fill="#fff" opacity=".2"/></svg><svg aria-hidden="true" data-prefix="fab" data-icon="facebook-f" viewBox="0 0 320 512" class="acsvg-inline--fa acfa-facebook-f acfa-w-10 acfa-7x" id="facebook-f" xmlns="http://www.w3.org/2000/svg"><path fill="currentColor" d="M279.14 288l14.22-92.66h-88.91v-60.13c0-25.35 12.42-50.06 52.24-50.06h40.42V6.26S260.43 0 225.36 0c-73.22 0-121.08 44.38-121.08 124.72v70.62H22.89V288h81.39v224h100.17V288z"/></svg><svg aria-hidden="true" data-prefix="far" data-icon="folder-plus" viewBox="0 0 512 512" class="adsvg-inline--fa adfa-folder-plus adfa-w-16 adfa-9x" id="folder-plus" xmlns="http://www.w3.org/2000/svg"><path fill="currentColor" d="M464 128H272l-54.63-54.63A32 32 0 00194.74 64H48a48 48 0 00-48 48v288a48 48 0 0048 48h416a48 48 0 0048-48V176a48 48 0 00-48-48zm0 272H48V112h140.12l54.63 54.63a32 32 0 0022.63 9.37H464zM247.5 208a16 16 0 00-16 16v40H192a16 16 0 00-16 16v16a16 16 0 0016 16h39.5v40a16 16 0 0016 16h16a16 16 0 0016-16v-40H320a16 16 0 0016-16v-16a16 16 0 00-16-16h-40.5v-40a16 16 0 00-16-16z"/></svg><svg viewBox="0 0 291.32 291.32" id="github" xmlns="http://www.w3.org/2000/svg"><path d="M145.66 0C65.219 0 0 65.219 0 145.66c0 80.45 65.219 145.66 145.66 145.66s145.66-65.21 145.66-145.66C291.319 65.219 226.1 0 145.66 0zm40.802 256.625c-.838-11.398-1.775-25.518-1.83-31.235-.364-4.388-.838-15.549-11.434-22.677 42.068-3.523 62.087-26.774 63.526-57.499 1.202-17.497-5.754-32.883-18.107-45.3.628-13.282-.401-29.023-1.256-35.941-9.486-2.731-31.608 8.949-37.79 13.947-13.037-5.062-44.945-6.837-64.336 0-13.747-9.668-29.396-15.64-37.926-13.974-7.875 17.452-2.813 33.948-1.275 35.914-10.142 9.268-24.289 20.675-20.447 44.572 6.163 35.04 30.816 53.94 70.508 58.564-8.466 1.73-9.896 8.048-10.606 10.788-26.656 10.997-34.275-6.791-37.644-11.425-11.188-13.847-21.23-9.832-21.849-9.614-.601.218-1.056 1.092-.992 1.511.564 2.986 6.655 6.018 6.955 6.263 8.257 6.154 11.316 17.27 13.2 20.438 11.844 19.473 39.374 11.398 39.638 11.562.018 1.702-.191 16.032-.355 27.184C64.245 245.992 27.311 200.2 27.311 145.66c0-65.365 52.984-118.348 118.348-118.348S264.008 80.295 264.008 145.66c0 51.008-32.318 94.332-77.546 110.965z" fill="#2b414d"/></svg><svg fill="none" viewBox="0 0 64 64" id="grommet-icons_figma" xmlns="http://www.w3.org/2000/svg"><g opacity=".78"><path d="M42.667 42.667c5.89 0 10.666-4.776 10.666-10.667s-4.775-10.667-10.666-10.667S32 26.11 32 32s4.776 10.667 10.667 10.667z" fill="#19BCFE"/><path fill-rule="evenodd" clip-rule="evenodd" d="M21.333 64A10.667 10.667 0 0032 53.333V42.667H21.333a10.667 10.667 0 100 21.333z" fill="#09CF83"/><path fill-rule="evenodd" clip-rule="evenodd" d="M21.333 42.667H32V21.333H21.333a10.667 10.667 0 100 21.334z" fill="#A259FF"/><path fill-rule="evenodd" clip-rule="evenodd" d="M21.333 21.333H32V0H21.333a10.667 10.667 0 100 21.333z" fill="#F24E1E"/><path fill-rule="evenodd" clip-rule="evenodd" d="M42.667 21.333H32V0h10.667a10.667 10.667 0 010 21.333z" fill="#FF7262"/></g></svg><svg fill="none" viewBox="0 0 65 64" id="grommet-icons_slack" xmlns="http://www.w3.org/2000/svg"><g opacity=".78" clip-path="url(#agclip0)" fill-rule="evenodd" clip-rule="evenodd"><path d="M13.672 40.22c0 .877-.175 1.747-.517 2.559a6.674 6.674 0 01-1.477 2.17 6.812 6.812 0 01-2.21 1.449 6.911 6.911 0 01-2.608.507c-.894 0-1.78-.173-2.605-.509a6.813 6.813 0 01-2.21-1.449 6.673 6.673 0 01-1.474-2.17 6.575 6.575 0 01-.517-2.558c0-.878.175-1.748.517-2.56a6.673 6.673 0 011.476-2.169 6.812 6.812 0 012.21-1.449 6.911 6.911 0 012.606-.507h6.811v6.685h-.002zm3.404 0c0-.879.175-1.749.517-2.56a6.673 6.673 0 011.476-2.17 6.812 6.812 0 012.21-1.449 6.911 6.911 0 012.606-.507c.894-.001 1.78.171 2.606.507a6.812 6.812 0 012.21 1.45 6.673 6.673 0 011.476 2.169c.342.811.517 1.681.517 2.56v16.715c0 .879-.175 1.748-.517 2.56a6.672 6.672 0 01-1.476 2.17 6.813 6.813 0 01-2.21 1.449 6.913 6.913 0 01-2.606.507c-.895 0-1.78-.172-2.607-.508a6.814 6.814 0 01-2.21-1.449 6.672 6.672 0 01-1.475-2.17 6.576 6.576 0 01-.517-2.559V40.22z" fill="#E01E5A"/><path d="M23.885 13.374c-.895 0-1.78-.172-2.607-.508a6.815 6.815 0 01-2.21-1.45 6.674 6.674 0 01-1.476-2.17 6.576 6.576 0 01-.516-2.56c0-.879.175-1.748.517-2.56a6.673 6.673 0 011.476-2.17 6.813 6.813 0 012.21-1.449A6.912 6.912 0 0123.884 0c.894 0 1.78.172 2.606.507a6.813 6.813 0 012.21 1.45 6.673 6.673 0 011.476 2.17c.342.81.517 1.68.517 2.558v6.691h-6.806l-.003-.002zm0 3.393c.894 0 1.78.172 2.606.507a6.815 6.815 0 012.21 1.45 6.674 6.674 0 011.476 2.17c.342.81.517 1.68.517 2.558 0 .878-.175 1.748-.517 2.56a6.673 6.673 0 01-1.476 2.17 6.812 6.812 0 01-2.21 1.448 6.911 6.911 0 01-2.606.508H6.809c-.894 0-1.78-.172-2.606-.507a6.815 6.815 0 01-2.21-1.449 6.673 6.673 0 01-1.475-2.169 6.575 6.575 0 01-.001-5.117 6.672 6.672 0 011.476-2.17 6.813 6.813 0 012.21-1.449 6.913 6.913 0 012.606-.508h17.078l-.002-.002z" fill="#36C5F0"/><path d="M51.174 23.452c0-.878.175-1.748.517-2.56a6.672 6.672 0 011.476-2.17 6.812 6.812 0 012.211-1.448 6.91 6.91 0 012.607-.507c.895 0 1.78.172 2.607.507a6.815 6.815 0 012.21 1.45 6.674 6.674 0 011.475 2.17c.342.81.518 1.68.517 2.558 0 .878-.175 1.748-.517 2.56a6.673 6.673 0 01-1.476 2.17 6.812 6.812 0 01-2.21 1.448 6.911 6.911 0 01-2.606.508h-6.811v-6.686zm-3.405 0c.001.878-.175 1.748-.516 2.56a6.674 6.674 0 01-1.476 2.17 6.81 6.81 0 01-2.21 1.448 6.911 6.911 0 01-2.606.508 6.91 6.91 0 01-2.608-.507 6.814 6.814 0 01-2.21-1.449 6.674 6.674 0 01-1.477-2.17 6.575 6.575 0 01-.517-2.56V6.685c0-.878.175-1.748.517-2.56a6.673 6.673 0 011.477-2.17 6.814 6.814 0 012.21-1.448A6.912 6.912 0 0140.961 0c.894 0 1.78.172 2.606.507a6.812 6.812 0 012.21 1.45 6.675 6.675 0 011.476 2.17c.341.81.517 1.68.516 2.558v16.77-.003z" fill="#2EB67D"/><path d="M40.96 50.247c.895 0 1.78.172 2.607.508a6.815 6.815 0 012.21 1.449 6.674 6.674 0 011.475 2.17c.342.811.518 1.68.517 2.559a6.574 6.574 0 01-.516 2.56 6.676 6.676 0 01-1.475 2.17 6.815 6.815 0 01-2.21 1.45 6.913 6.913 0 01-2.607.508c-.895 0-1.78-.172-2.608-.508a6.815 6.815 0 01-2.21-1.45 6.676 6.676 0 01-1.475-2.17 6.576 6.576 0 01-.516-2.56v-6.686h6.809zm0-3.342c-.894 0-1.78-.172-2.606-.508a6.815 6.815 0 01-2.21-1.449 6.674 6.674 0 01-1.475-2.17 6.576 6.576 0 01-.517-2.559c0-.878.175-1.748.517-2.56a6.673 6.673 0 011.476-2.169 6.812 6.812 0 012.21-1.449 6.911 6.911 0 012.606-.507h17.076c.894-.001 1.78.171 2.606.507a6.812 6.812 0 012.21 1.45 6.674 6.674 0 011.476 2.169c.342.811.517 1.681.516 2.56.001.877-.174 1.747-.516 2.558a6.676 6.676 0 01-1.476 2.17 6.815 6.815 0 01-2.21 1.45 6.913 6.913 0 01-2.606.507H40.96z" fill="#ECB22E"/></g><defs><clipPath id="agclip0"><path fill="#fff" d="M0 0h65v63.823H0z"/></clipPath></defs></svg><svg aria-hidden="true" data-prefix="fas" data-icon="heart" viewBox="0 0 512 512" class="ahsvg-inline--fa ahfa-heart ahfa-w-16 ahfa-9x" id="heart-b" xmlns="http://www.w3.org/2000/svg"><path fill="currentColor" d="M462.3 62.6C407.5 15.9 326 24.3 275.7 76.2L256 96.5l-19.7-20.3C186.1 24.3 104.5 15.9 49.7 62.6c-62.8 53.6-66.1 149.8-9.9 207.9l193.5 199.8c12.5 12.9 32.8 12.9 45.3 0l193.5-199.8c56.3-58.1 53-154.3-9.8-207.9z"/></svg><svg viewBox="0 0 128 128" id="iconfinder_Instagram_1298747" xmlns="http://www.w3.org/2000/svg"><path clip-rule="evenodd" fill="none" d="M0 0h128v128H0z"/><radialGradient cx="19.111" cy="128.444" gradientUnits="userSpaceOnUse" id="aia" r="163.552"><stop offset="0" stop-color="#ffb140"/><stop offset=".256" stop-color="#ff5445"/><stop offset=".599" stop-color="#fc2b82"/><stop offset="1" stop-color="#8e40b7"/></radialGradient><path clip-rule="evenodd" d="M105.843 29.837a7.68 7.68 0 11-15.36 0 7.68 7.68 0 0115.36 0zM64 85.333c-11.782 0-21.333-9.551-21.333-21.333 0-11.782 9.551-21.333 21.333-21.333 11.782 0 21.333 9.551 21.333 21.333 0 11.782-9.551 21.333-21.333 21.333zm0-54.198c-18.151 0-32.865 14.714-32.865 32.865 0 18.151 14.714 32.865 32.865 32.865 18.151 0 32.865-14.714 32.865-32.865 0-18.151-14.714-32.865-32.865-32.865zm0-19.603c17.089 0 19.113.065 25.861.373 6.24.285 9.629 1.327 11.884 2.204 2.987 1.161 5.119 2.548 7.359 4.788 2.24 2.239 3.627 4.371 4.788 7.359.876 2.255 1.919 5.644 2.204 11.884.308 6.749.373 8.773.373 25.862s-.065 19.113-.373 25.861c-.285 6.24-1.327 9.629-2.204 11.884-1.161 2.987-2.548 5.119-4.788 7.359-2.239 2.24-4.371 3.627-7.359 4.788-2.255.876-5.644 1.919-11.884 2.204-6.748.308-8.772.373-25.861.373-17.09 0-19.114-.065-25.862-.373-6.24-.285-9.629-1.327-11.884-2.204-2.987-1.161-5.119-2.548-7.359-4.788-2.239-2.239-3.627-4.371-4.788-7.359-.876-2.255-1.919-5.644-2.204-11.884-.308-6.749-.373-8.773-.373-25.861 0-17.089.065-19.113.373-25.862.285-6.24 1.327-9.629 2.204-11.884 1.161-2.987 2.548-5.119 4.788-7.359 2.239-2.24 4.371-3.627 7.359-4.788 2.255-.876 5.644-1.919 11.884-2.204 6.749-.308 8.773-.373 25.862-.373zM64 0C46.619 0 44.439.074 37.613.385 30.801.696 26.148 1.778 22.078 3.36c-4.209 1.635-7.778 3.824-11.336 7.382C7.184 14.3 4.995 17.869 3.36 22.078 1.778 26.149.696 30.801.385 37.613.074 44.439 0 46.619 0 64s.074 19.561.385 26.387c.311 6.812 1.393 11.464 2.975 15.535 1.635 4.209 3.824 7.778 7.382 11.336 3.558 3.558 7.127 5.746 11.336 7.382 4.071 1.582 8.723 2.664 15.535 2.975 6.826.311 9.006.385 26.387.385s19.561-.074 26.387-.385c6.812-.311 11.464-1.393 15.535-2.975 4.209-1.636 7.778-3.824 11.336-7.382 3.558-3.558 5.746-7.127 7.382-11.336 1.582-4.071 2.664-8.723 2.975-15.535.311-6.826.385-9.006.385-26.387s-.074-19.561-.385-26.387c-.311-6.812-1.393-11.464-2.975-15.535-1.636-4.209-3.824-7.778-7.382-11.336-3.558-3.558-7.127-5.746-11.336-7.382C101.851 1.778 97.199.696 90.387.385 83.561.074 81.381 0 64 0z" fill="url(#aia)" fill-rule="evenodd"/></svg><svg viewBox="0 0 24 24" id="iconfinder_gulp_4691255" xmlns="http://www.w3.org/2000/svg"><path d="M15.156 19.432l.636-1.084s-1.444.591-3.86.591c-2.418 0-3.84-.568-3.84-.568l.711 1.183.252 3.729c0 .403 1.314.718 2.936.718 1.623 0 2.938-.314 2.938-.718l.229-3.835v-.016zm.615-7.046c-.769.046-1.153.903-1.539 1.805-.143.33-.63 1.737-.948 1.563-.318-.173.413-1.329.619-2.017-.237.174-1.105.849-1.329.215-.358.314-1.129.48-1.042-.329-.191.345-.621.823-1.139.614-.673-.255.395-2.411.66-2.307.266.121-.053.6-.136.794-.186.419-.398.958-.255 1.063.24.194.904-.703.919-.719.124-.165.479-1.229.763-1.107.285.134-.711 1.541-.34 1.826.076.06.383-.03.569-.239.12-.12.078-.42.479-1.378.404-.959.764-2.156 1.039-2.066s.049.703-.051.943c-.464 1.078-1.268 2.844-.89 2.71.374-.135.569-.135.943-.569.374-.434.345-1.152.599-1.137.24.014.21.254.15.418.24-.27 1.152-.868 1.363-.284.254.688-1.304 1.692-.914 1.632.375-.045.988-.434 1.258-.793l.719-6.5s-.734.6-5.361.6-5.284-.584-5.284-.584l.613 5.93c.33-.928 1.108-2.814 2.322-2.74.554.03 1.303 1.109.658 1.139-.27.015-.3-.539-.614-.614-.239-.046-.554.135-.763.345-.404.404-1.304 2.006-1.184 2.801.15 1.018 1.407-.346 1.617-.75.149-.283.254-1.138.568-1.048.33.09-.029.974-.27 1.737-.27.869-.404 1.781-.732 1.676-.33-.104.209-1.227.178-1.422-.313.299-.883 1.02-1.631.659l.374 3.699s1.019.793 4.073.793 4.118-.793 4.118-.793l.479-4.283c-.389.39-1.617 1.063-1.692.3-.059-.614 1.333-1.498.974-1.514l.06-.069zM17.346.669l-2.659 2.8-.486 1.901c1.881.12 3.189.386 3.189.694 0 .419-2.414.757-5.391.757s-5.39-.343-5.39-.763c0-.419 2.414-.764 5.391-.764.423 0 .844 0 1.264.016l.561-2.276L16.65.039c.068-.09.28-.015.474.15.194.149.299.344.239.434v.03l-.017.016zm-3.834 5.795s-.523 0-.61-.08a.14.14 0 01-.036-.09c0-.058.039-.091.09-.11l.044.075c-.021.006-.029.015-.033.023 0 .041.314.069.555.066.239-.003.531-.023.533-.064 0-.012-.023-.023-.061-.033l.045-.072c.063.02.117.058.117.121 0 .11-.141.128-.23.141-.107.015-.412.023-.412.023h-.002z"/></svg><svg viewBox="0 0 24 24" id="iconfinder_logo_brand_brands_logos_adobe_illustrator_2993708" xmlns="http://www.w3.org/2000/svg"><radialGradient cx="8.833" cy="6.167" gradientUnits="userSpaceOnUse" id="aka" r="17.588"><stop offset="0" stop-color="#3c1605" stop-opacity=".98"/><stop offset="1" stop-color="#1a1107"/></radialGradient><path fill="url(#aka)" d="M1.5 1.5h21v21h-21z"/><path d="M23 23H1V1h22v22zM2 22h20V2H2v20z" fill="#F47521"/><path fill="#F47521" d="M8.5 13h4v2h-4zM16.5 10.5h2V18h-2z"/><circle cx="17.5" cy="9" fill="#F47521" r="1"/><path fill="#F47521" d="M9.45 6L5.61 18h2.1l2.79-8.719L13.29 18h2.1L11.55 6z"/><linearGradient gradientUnits="userSpaceOnUse" id="akb" x1="-1.249" x2="25.249" y1="5.822" y2="18.178"><stop offset="0" stop-color="#fff" stop-opacity=".2"/><stop offset="1" stop-color="#fff" stop-opacity="0"/></linearGradient><path d="M23 23H1V1h22v22z" fill="url(#akb)"/></svg><svg viewBox="0 0 24 24" id="iconfinder_logo_brand_brands_logos_indesign_adobe_2993660" xmlns="http://www.w3.org/2000/svg"><radialGradient cx="8.833" cy="6.167" gradientUnits="userSpaceOnUse" id="ala" r="17.588"><stop offset="0" stop-color="#4b1325" stop-opacity=".98"/><stop offset="1" stop-color="#1a1107"/></radialGradient><path fill="url(#ala)" d="M1.5 1.5h21v21h-21z"/><path d="M23 23H1V1h22v22zM2 22h20V2H2v20z" fill="#EE3D8B"/><path fill="#EE3D8B" d="M8 6h2v12H8zM18 18h-3.4c-1.67 0-3.19-1.129-3.525-2.765A3.506 3.506 0 0114.5 11H16V8h2v10zm-3.5-5c-.827 0-1.5.673-1.5 1.5s.673 1.5 1.5 1.5H16v-3h-1.5z"/><linearGradient gradientUnits="userSpaceOnUse" id="alb" x1="-1.249" x2="25.249" y1="5.822" y2="18.178"><stop offset="0" stop-color="#fff" stop-opacity=".2"/><stop offset="1" stop-color="#fff" stop-opacity="0"/></linearGradient><path d="M23 23H1V1h22v22z" fill="url(#alb)"/></svg><svg viewBox="0 0 512 512" id="iconfinder_node_3069651" xmlns="http://www.w3.org/2000/svg"><circle cx="256" cy="256" fill="#6CC24A" r="256"/><path d="M135.2 259.1c0-1.1-.6-2-1.5-2.5l-24.2-13.9c-.4-.2-.9-.4-1.3-.4h-.3c-.5 0-.9.1-1.3.4l-24.2 13.9c-.9.5-1.5 1.5-1.5 2.5l.1 37.4c0 .5.3 1 .7 1.3.4.3 1 .3 1.4 0l14.4-8.2c.9-.5 1.5-1.5 1.5-2.5v-17.5c0-1 .6-2 1.5-2.5l6.1-3.5c.5-.3 1-.4 1.5-.4s1 .1 1.5.4l6.1 3.5c.9.5 1.5 1.5 1.5 2.5V287c0 1 .6 2 1.5 2.5l14.4 8.2c.4.3 1 .3 1.5 0 .4-.3.7-.7.7-1.3l-.1-37.3zM264.2 207.6c-.5-.3-1-.2-1.5 0-.4.3-.7.7-.7 1.3V246c0 .4-.2.7-.5.9-.3.2-.7.2-1 0l-6.1-3.5c-.9-.5-2-.5-2.9 0l-24.2 14c-.9.5-1.5 1.5-1.5 2.5v27.9c0 1 .6 2 1.5 2.5l24.2 14c.9.5 2 .5 2.9 0l24.2-14c.9-.5 1.5-1.5 1.5-2.5v-69.6c0-1.1-.6-2-1.5-2.5l-14.4-8.1zm-2.2 71c0 .3-.1.5-.4.6l-8.3 4.8c-.2.1-.5.1-.7 0l-8.3-4.8c-.2-.1-.4-.4-.4-.6V269c0-.3.1-.5.4-.6l8.3-4.8c.2-.1.5-.1.7 0l8.3 4.8c.2.1.4.4.4.6v9.6zM350.7 268.7c.9-.5 1.5-1.5 1.5-2.5v-6.8c0-1-.6-2-1.5-2.5l-24-13.9c-.9-.5-2-.5-2.9 0l-24.2 14c-.9.5-1.5 1.5-1.5 2.5v27.9c0 1 .6 2 1.5 2.5l24 13.7c.9.5 2 .5 2.9 0l14.5-8.1c.5-.3.7-.7.8-1.3 0-.5-.3-1-.7-1.3l-24.3-14c-.5-.3-.7-.7-.7-1.3V269c0-.5.3-1 .7-1.3l7.6-4.4c.4-.3 1-.3 1.5 0l7.6 4.4c.5.3.7.7.7 1.3v6.9c0 .5.3 1 .7 1.3.5.3 1 .3 1.5 0l14.3-8.5zM179.1 242.8c.9-.5 2-.5 2.9 0l24.2 13.9c.9.5 1.5 1.5 1.5 2.5v27.9c0 1-.6 2-1.5 2.5l-24.2 14c-.9.5-2 .5-2.9 0l-24.2-14c-.9-.5-1.5-1.5-1.5-2.5v-27.9c0-1 .6-2 1.5-2.5l24.2-13.9zM397.6 304.1c-.8 0-1.7-.2-2.4-.6l-7.6-4.5c-1.1-.6-.6-.9-.2-1 1.5-.5 1.8-.6 3.4-1.6.2-.1.4-.1.6 0l5.8 3.5c.2.1.5.1.7 0l22.8-13.2c.2-.1.3-.4.3-.6v-26.3c0-.3-.1-.5-.4-.6L398 246.1c-.2-.1-.5-.1-.7 0l-22.8 13.1c-.2.1-.4.4-.4.6v26.3c0 .3.1.5.4.6l6.2 3.6c3.4 1.7 5.5-.3 5.5-2.3v-26c0-.4.3-.7.7-.7h2.9c.4 0 .7.3.7.7v26c0 4.5-2.5 7.1-6.7 7.1-1.3 0-2.4 0-5.3-1.4l-6-3.4c-1.5-.9-2.4-2.4-2.4-4.2v-26.3c0-1.7.9-3.3 2.4-4.2l22.8-13.2c1.4-.8 3.4-.8 4.8 0l22.8 13.2c1.5.9 2.4 2.4 2.4 4.2v26.3c0 1.7-.9 3.3-2.4 4.2L400 303.5c-.7.4-1.5.6-2.4.6z" fill="#FFF"/><path d="M404.7 286c-10 0-12.1-4.6-12.1-8.4 0-.4.3-.7.7-.7h2.9c.3 0 .6.2.7.6.4 3 1.8 4.5 7.8 4.5 4.8 0 6.8-1.1 6.8-3.6 0-1.5-.6-2.6-8-3.3-6.2-.6-10.1-2-10.1-7 0-4.6 3.9-7.3 10.4-7.3 7.3 0 10.9 2.5 11.4 8 0 .2 0 .4-.2.5-.1.1-.3.2-.5.2h-3c-.3 0-.6-.2-.6-.5-.7-3.2-2.4-4.2-7.1-4.2-5.2 0-5.9 1.8-5.9 3.2 0 1.7.7 2.1 7.8 3.1 7 .9 10.3 2.2 10.3 7.2 0 4.8-4.1 7.7-11.3 7.7zM324.9 267.4c.2-.1.4-.1.6 0l4.6 2.7c.2.1.3.3.3.5v5.4c0 .2-.1.4-.3.5l-4.6 2.7c-.2.1-.4.1-.6 0l-4.6-2.7c-.2-.1-.3-.3-.3-.5v-5.4c0-.2.1-.4.3-.5l4.6-2.7zM441 249.6c0 2.4-2 4.4-4.4 4.4-2.4 0-4.4-2-4.4-4.4 0-2.5 2-4.4 4.4-4.4 2.4 0 4.4 2 4.4 4.4zm-8.1 0c0 2 1.7 3.7 3.7 3.7s3.7-1.7 3.7-3.7-1.7-3.7-3.7-3.7c-2 .1-3.7 1.7-3.7 3.7zm2.1-2.4h1.7c.6 0 1.7 0 1.7 1.3 0 .9-.6 1.1-.9 1.2.7 0 .7.5.8 1.1 0 .4.1 1.1.3 1.3h-1c0-.2-.2-1.5-.2-1.6-.1-.3-.2-.4-.5-.4h-.9v2h-1v-4.9zm.9 2.1h.8c.6 0 .7-.4.7-.7 0-.7-.5-.7-.7-.7h-.8v1.4z" fill="#FFF"/></svg><svg viewBox="0 0 24 24" id="iconfinder_npm_4691529" xmlns="http://www.w3.org/2000/svg"><path d="M0 7.334v8h6.666v1.332H12v-1.332h12v-8H0zm6.666 6.664H5.334v-4H3.999v4H1.335V8.667h5.331v5.331zm4 0v1.336H8.001V8.667h5.334v5.332h-2.669v-.001zm12.001 0h-1.33v-4h-1.336v4h-1.335v-4h-1.33v4h-2.671V8.667h8.002v5.331zM10.665 10H12v2.667h-1.335V10z"/></svg><svg id="iconfinder_sublime-text_1297064" version="1.1" viewBox="0 0 128 128" xml:space="preserve" xmlns="http://www.w3.org/2000/svg"><style>.aost0{fill:#4b4b4b}.aost1{fill:#ff9700}.aost2{fill:#ffbe2e}</style><circle class="aost0" cx="64" cy="64" r="50"/><path class="aost1" d="M81.1 74.7c.1 1.8-.4 4.6-1.2 6.2-.8 1.7-1.9 3.1-3.4 4.4-1.4 1.3-3.1 2.3-5.1 3-2 .8-4.1 1.1-6.5 1.1-2.1 0-4.1-.1-5.8-.4-1.7-.2-3.3-.6-4.8-1.2-1.5-.5-2.9-1.2-4.3-2.1-.8-.5-1.5-1-2.3-1.6-1-.8-1.2-2.3-.2-3.2l3.8-3.8c.7-.7 1.9-.8 2.7-.2 1.5 1.1 2.9 1.9 4.4 2.4 1.9.7 3.9 1 6.2 1 .9 0 1.8-.1 2.6-.4.8-.3 1.5-.6 2.1-1.1.6-.5 1.1-1 1.4-1.6.4-.6.5-1.3.5-2 0-.8-.1-1.5-.4-2.1-.3-.6-.8-1.2-1.5-1.8-.7-.6-1.8-1.2-3.1-1.8-1.3-.6-3-1.3-5-2-1.8-.7-3.5-1.4-5.2-2.2-1.7-.8-3.1-1.9-4.4-3-1.3-1.2-2.3-2.6-3-4.2-.8-1.6-1.1-3.5-1.1-5.7 0-2.1.4-4 1.3-5.8.8-1.8 2-3.3 3.4-4.5 1.5-1.2 3.2-2.2 5.1-2.9 1.9-.7 4.1-1 6.3-1 3.8 0 6.9.5 9.5 1.5 1.8.7 3.5 1.6 5.1 2.8 1 .8 1.1 2.3.2 3.2l-3.6 3.7c-.8.8-1.9.8-2.8.2-.8-.6-1.7-1.1-2.7-1.5-1.5-.6-3.3-1-5.4-1-.9 0-1.8.1-2.6.4-.8.3-1.5.7-2.1 1.1-.6.5-1 1-1.4 1.7-.4.6-.5 1.3-.5 2 0 .8.2 1.5.5 2.1.3.6.9 1.3 1.7 1.8.8.6 1.8 1.2 3.1 1.8 1.3.6 2.9 1.2 4.8 1.9 2.5.9 4.6 1.8 6.3 2.8 1.8 1 3.2 2.2 4.3 3.4 1.1 1.2 1.9 2.6 2.5 4.2.3 1.5.5 2.9.6 4.4z"/><path class="aost2" d="M78 42.7c-1.5-1.2-3.2-2.1-5.1-2.8-2.6-1-5.8-1.5-9.5-1.5-2.3 0-4.4.3-6.3 1-1.9.7-3.6 1.7-5.1 2.9-1.5 1.3-2.6 2.8-3.4 4.5-.8 1.8-1.3 3.7-1.3 5.8 0 2.2.4 4.1 1.1 5.7.8 1.6 1.8 3 3 4.2 1.3 1.2 2.7 2.2 4.4 3l18.5-2.1c-.2-.2-.5-.3-.7-.5-1.8-1-3.9-2-6.3-2.8-1.9-.7-3.5-1.3-4.8-1.9-1.3-.6-2.3-1.2-3.1-1.8-.8-.6-1.3-1.2-1.7-1.8-.3-.6-.5-1.3-.5-2.1 0-.7.2-1.4.5-2 .3-.6.8-1.2 1.4-1.7.6-.5 1.3-.9 2.1-1.1.8-.3 1.7-.4 2.6-.4 2.1 0 3.8.3 5.4 1 1 .4 1.9.9 2.7 1.5.9.6 2 .6 2.8-.2l3.6-3.7c.8-.9.7-2.5-.3-3.2z"/></svg><svg viewBox="0 0 48 48" id="icons8-adobe-xd" xmlns="http://www.w3.org/2000/svg"><path fill="#ff41c8" d="M6 10a4 4 0 014-4h28a4 4 0 014 4v28a4 4 0 01-4 4H10a4 4 0 01-4-4V10z"/><path fill="#16020b" d="M9 9v30h30V9H9zm10.093 12.695l1.914-4.883h3.291l-3.34 7.051 3.418 7.168h-3.33l-1.953-4.971-1.943 4.971h-3.33l3.418-7.168-3.35-7.051h3.291l1.914 4.883zm5.976 3.731c0-1.732.293-3.024.879-3.877s1.438-1.279 2.559-1.279c.813 0 1.491.352 2.031 1.055v-5.293h2.783v15h-2.51l-.127-1.074c-.566.847-1.296 1.27-2.188 1.27-1.106 0-1.951-.423-2.534-1.27s-.881-2.09-.894-3.73v-.802zm2.774.693c0 1.042.11 1.77.332 2.183s.596.62 1.123.62c.547 0 .96-.244 1.24-.732v-4.824c-.273-.521-.684-.781-1.23-.781-.508 0-.879.205-1.113.615s-.352 1.14-.352 2.188v.731z"/></svg><svg viewBox="0 0 48 48" id="icons8-atom-editor" xmlns="http://www.w3.org/2000/svg"><path fill="#757575" d="M14.5 43.1c-1 0-1.7-.3-2.2-.7-1.4-1-2.3-2.8-2.3-5-.1-4.7 2.4-11.5 6.7-18.1C22.1 11 29 5.2 33.5 5c1 0 1.9.2 2.6.6 1.9 1.2 2.9 4.1.8 7.9-.3.5-.9.7-1.4.4-.5-.3-.7-.9-.4-1.4 1.3-2.3 1.2-4.4-.2-5.2-.3-.2-.7-.3-1.3-.3-3.3.1-9.6 4.8-15.2 13.4-4.1 6.2-6.5 12.6-6.4 16.9 0 1.6.5 2.8 1.4 3.4l.1.1c.4.4 2.2.5 4.8-1.6.4-.4 1.1-.3 1.4.1.4.4.3 1.1-.1 1.4-2.1 1.8-3.8 2.4-5.1 2.4z"/><path fill="#757575" d="M40 31c-.4 0-.8-.2-.9-.6-.2-.5.1-1.1.6-1.3 2.5-1 4.3-2.6 4.3-4 .2-2.9-7.2-6.3-19.8-7C23 18 22 18 21 18c-9.9 0-16.9 2.1-17 5.1-.1 1.2 2 3.1 4.4 4 .5.2.8.8.6 1.3-.2.5-.8.8-1.3.6-2.9-1.1-5.8-3.5-5.6-6 .1-4.4 7.2-7 18.9-7 1 0 2.1 0 3.3.1 11 .6 22 3.6 21.7 9.1-.1 2.3-2.3 4.5-5.6 5.8H40z"/><path fill="#757575" d="M32.1 44c-.6 0-1.3-.1-2-.4-4.5-1.5-10.1-7.9-13.8-15.7-2.5-5.2-4.2-11.9-4.3-17.2-.1-3.3.7-5.4 2.4-6.3.5-.2 1-.4 1.5-.4 1.6-.1 3.5.9 5.8 3.3.4.4.4 1 0 1.4-.4.4-1 .4-1.4 0C17.9 6.3 16.6 6 16.1 6c-.3 0-.5.1-.8.2-.9.5-1.4 2-1.3 4.5.1 4.1 1.3 10.8 4 16.4 4.1 8.5 9.4 13.6 12.7 14.7.9.3 1.7.3 2.3.1 1.9-1.7 1.2-9.8-2.9-19.4-.2-.5 0-1.1.5-1.3.5-.2 1.1 0 1.3.5 3.8 8.8 5.8 19.2 2.2 21.9H34c-.6.3-1.2.4-1.9.4z"/><path fill="#757575" d="M27 24c0 1.7-1.3 3-3 3s-3-1.3-3-3 1.3-3 3-3 3 1.3 3 3z"/></svg><svg aria-hidden="true" data-prefix="fab" data-icon="instagram" viewBox="0 0 448 512" class="arsvg-inline--fa arfa-instagram arfa-w-14 arfa-9x" id="instagram" xmlns="http://www.w3.org/2000/svg"><path fill="currentColor" d="M224.1 141c-63.6 0-114.9 51.3-114.9 114.9s51.3 114.9 114.9 114.9S339 319.5 339 255.9 287.7 141 224.1 141zm0 189.6c-41.1 0-74.7-33.5-74.7-74.7s33.5-74.7 74.7-74.7 74.7 33.5 74.7 74.7-33.6 74.7-74.7 74.7zm146.4-194.3c0 14.9-12 26.8-26.8 26.8-14.9 0-26.8-12-26.8-26.8s12-26.8 26.8-26.8 26.8 12 26.8 26.8zm76.1 27.2c-1.7-35.9-9.9-67.7-36.2-93.9-26.2-26.2-58-34.4-93.9-36.2-37-2.1-147.9-2.1-184.9 0-35.8 1.7-67.6 9.9-93.9 36.1s-34.4 58-36.2 93.9c-2.1 37-2.1 147.9 0 184.9 1.7 35.9 9.9 67.7 36.2 93.9s58 34.4 93.9 36.2c37 2.1 147.9 2.1 184.9 0 35.9-1.7 67.7-9.9 93.9-36.2 26.2-26.2 34.4-58 36.2-93.9 2.1-37 2.1-147.8 0-184.8zM398.8 388c-7.8 19.6-22.9 34.7-42.6 42.6-29.5 11.7-99.5 9-132.1 9s-102.7 2.6-132.1-9c-19.6-7.8-34.7-22.9-42.6-42.6-11.7-29.5-9-99.5-9-132.1s-2.6-102.7 9-132.1c7.8-19.6 22.9-34.7 42.6-42.6 29.5-11.7 99.5-9 132.1-9s102.7-2.6 132.1 9c19.6 7.8 34.7 22.9 42.6 42.6 11.7 29.5 9 99.5 9 132.1s2.7 102.7-9 132.1z"/></svg><svg fill="none" viewBox="0 0 64 64" id="jb_phpstorm" xmlns="http://www.w3.org/2000/svg"><g clip-path="url(#asclip0)"><path d="M36.206 13.897l-3.017-9.143L10.88 0 0 12.343l34.011 17.371 2.195-15.817z" fill="url(#aspaint0_linear)"/><path d="M25.6 37.851l-.64-19.017L0 12.343l6.126 36.663 19.474-.183V37.85z" fill="url(#aspaint1_linear)"/><path d="M20.206 37.486L21.394 22.4 39.497 3.84 55.68 6.766 64 27.52l-8.686 8.594-14.171-2.285-8.777 9.234-12.16-5.577z" fill="url(#aspaint2_linear)"/><path d="M39.497 3.84L13.532 26.88l5.028 29.623L40.137 64 64 49.737 39.497 3.84z" fill="url(#aspaint3_linear)"/><path d="M12.251 12.251H51.75V51.75H12.25V12.25z" fill="#000"/><path d="M16 44.343h14.811v2.468H16v-2.468zM15.817 17.371h6.674c3.932 0 6.309 2.286 6.309 5.669v.091c0 3.84-2.926 5.76-6.674 5.76h-2.743v4.938h-3.566V17.37zm6.491 8.229c1.829 0 2.835-1.097 2.835-2.469v-.091c0-1.646-1.097-2.469-2.926-2.469h-2.743V25.6h2.834zM29.714 31.451l2.103-2.56c1.463 1.189 3.017 2.012 4.937 2.012 1.463 0 2.377-.549 2.377-1.554v-.092c0-.914-.548-1.371-3.291-2.103-3.292-.823-5.486-1.737-5.486-5.028v-.092c0-3.017 2.377-4.937 5.76-4.937 2.377 0 4.48.731 6.126 2.103l-1.92 2.743c-1.463-1.006-2.926-1.646-4.297-1.646-1.372 0-2.103.64-2.103 1.463v.091c0 1.098.731 1.463 3.566 2.195 3.291.914 5.211 2.102 5.211 4.937v.091c0 3.292-2.469 5.12-6.034 5.12a11.267 11.267 0 01-6.949-2.743z" fill="#fff"/></g><defs><linearGradient id="aspaint0_linear" x1=".51" y1="42.831" x2="27.38" y2="7.338" gradientUnits="userSpaceOnUse"><stop offset=".016" stop-color="#765AF8"/><stop offset=".382" stop-color="#B345F1"/><stop offset=".758" stop-color="#FA3293"/><stop offset=".941" stop-color="#FF318C"/></linearGradient><linearGradient id="aspaint1_linear" x1="2.496" y1="44.232" x2="29.323" y2="8.796" gradientUnits="userSpaceOnUse"><stop offset=".016" stop-color="#765AF8"/><stop offset=".382" stop-color="#B345F1"/><stop offset=".758" stop-color="#FA3293"/><stop offset=".941" stop-color="#FF318C"/></linearGradient><linearGradient id="aspaint2_linear" x1="46.498" y1="42.428" x2="31.336" y2="6.444" gradientUnits="userSpaceOnUse"><stop offset=".183" stop-color="#765AF8"/><stop offset=".238" stop-color="#8655F6"/><stop offset=".345" stop-color="#9F4CF3"/><stop offset=".443" stop-color="#AE47F2"/><stop offset=".522" stop-color="#B345F1"/></linearGradient><linearGradient id="aspaint3_linear" x1="57.843" y1="52.424" x2="22.581" y2="25.157" gradientUnits="userSpaceOnUse"><stop offset=".016" stop-color="#765AF8"/><stop offset=".382" stop-color="#B345F1"/></linearGradient><clipPath id="asclip0"><path fill="#fff" d="M0 0h64v64H0z"/></clipPath></defs></svg><svg fill="none" viewBox="0 0 64 64" id="jb_toolbox_app" xmlns="http://www.w3.org/2000/svg"><g opacity=".78" clip-path="url(#atclip0)"><path d="M32 64.152L60 48.13V16.114l-28 16.02v32.018z" fill="#000001"/><path d="M38 49.111V54l12-7.111V42l-12 7.111z" fill="#fff"/><path d="M32 .152L4 16.114V48.13l28 16.022V32.134l28-16.02L32 .152z" fill="url(#atpaint0_linear)"/></g><defs><linearGradient id="atpaint0_linear" x1="4.36" y1="46.51" x2="60.082" y2="17.564" gradientUnits="userSpaceOnUse"><stop offset=".043" stop-color="#FF8618"/><stop offset=".382" stop-color="#FF246E"/><stop offset=".989" stop-color="#AF1DF5"/></linearGradient><clipPath id="atclip0"><path fill="#fff" d="M0 0h64v64H0z"/></clipPath></defs></svg><svg fill="none" viewBox="0 0 20 22" id="logo" xmlns="http://www.w3.org/2000/svg"><path fill-rule="evenodd" clip-rule="evenodd" d="M10.964 5.436c-.332 0-.655.04-.964.118a9.12 9.12 0 011.996-4.76 8.67 8.67 0 017.637 8.609v6.326a9.165 9.165 0 01-8.53-4.687h3.828v-1.64a3.967 3.967 0 00-3.966-3.966z" fill="#fff"/><path fill-rule="evenodd" clip-rule="evenodd" d="M.256 9.95A9.643 9.643 0 0110.52.328a10.104 10.104 0 00-2.598 7.378 2.985 2.985 0 00-1.014 2.246v.665h5.985-4.37c1.422 3.88 5.15 6.65 9.524 6.65.509 0 1.008-.037 1.497-.11v4.1h-6.65v-3.99H6.906v3.99H.257V9.951z" fill="#fff"/></svg><svg fill="none" viewBox="0 0 157 51" id="logos_google" xmlns="http://www.w3.org/2000/svg"><path d="M152.11 31.168l4.356 2.875c-1.414 2.061-4.795 5.598-10.641 5.598-7.258 0-12.664-5.56-12.664-12.633 0-7.527 5.463-12.633 12.053-12.633 6.629 0 9.876 5.22 10.927 8.037l.573 1.438-17.077 6.997c1.298 2.534 3.324 3.82 6.188 3.82 2.866 0 4.852-1.4 6.285-3.499zm-13.39-4.557l11.404-4.69c-.631-1.57-2.503-2.685-4.738-2.685-2.846 0-6.8 2.496-6.666 7.375zM124.927 1.497h5.501v36.99h-5.501V1.497zM116.255 15.359h5.31v22.466c0 9.323-5.558 13.162-12.13 13.162-6.189 0-9.913-4.123-11.308-7.47l4.871-2.005c.878 2.062 2.999 4.502 6.437 4.502 4.222 0 6.82-2.591 6.82-7.433v-1.815h-.191c-1.261 1.513-3.668 2.874-6.724 2.874-6.38 0-12.226-5.503-12.226-12.594 0-7.13 5.846-12.69 12.226-12.69 3.037 0 5.463 1.343 6.724 2.818h.191V15.36zm.382 11.687c0-4.463-2.999-7.716-6.82-7.716-3.858 0-7.106 3.253-7.106 7.716 0 4.406 3.248 7.602 7.106 7.602 3.821.019 6.82-3.196 6.82-7.602zM66.914 26.951c0 7.281-5.73 12.633-12.76 12.633-7.03 0-12.76-5.37-12.76-12.633 0-7.318 5.73-12.651 12.76-12.651 7.03 0 12.76 5.333 12.76 12.651zm-5.578 0c0-4.538-3.324-7.659-7.183-7.659-3.858 0-7.182 3.12-7.182 7.66 0 4.5 3.324 7.658 7.182 7.658 3.86 0 7.183-3.158 7.183-7.659zM94.784 27.008c0 7.28-5.73 12.632-12.76 12.632-7.03 0-12.76-5.352-12.76-12.632 0-7.319 5.73-12.633 12.76-12.633 7.03 0 12.76 5.295 12.76 12.633zm-5.597 0c0-4.539-3.324-7.66-7.183-7.66-3.858 0-7.182 3.121-7.182 7.66 0 4.5 3.324 7.659 7.182 7.659 3.878 0 7.183-3.177 7.183-7.66zM20.419 34.1c-8.004 0-14.27-6.393-14.27-14.316 0-7.924 6.266-14.316 14.27-14.316 4.317 0 7.469 1.683 9.8 3.84l3.839-3.802C30.81 2.424 26.474.078 20.418.078 9.455.078.229 8.93.229 19.784c0 10.855 9.226 19.705 20.19 19.705 5.923 0 10.393-1.929 13.888-5.522 3.591-3.555 4.7-8.548 4.7-12.595 0-1.267-.153-2.572-.325-3.536H20.419v5.257h13.009c-.383 3.291-1.433 5.541-2.98 7.073-1.872 1.872-4.833 3.933-10.03 3.933z" fill="#fff" fill-opacity=".2"/></svg><svg fill="none" viewBox="0 0 65 64" id="logos_invision-icon" xmlns="http://www.w3.org/2000/svg"><g opacity=".78" clip-path="url(#awclip0)"><path d="M0 4a4 4 0 014-4h57a4 4 0 014 4v55.823a4 4 0 01-4 4H4a4 4 0 01-4-4V4z" fill="#F06"/><path d="M22.118 20.538c2.056-.03 3.701-1.684 3.681-3.703-.02-2.02-1.697-3.643-3.754-3.633-2.056.01-3.718 1.649-3.718 3.668.002.486.101.966.293 1.414.192.448.472.854.824 1.195.353.341.77.61 1.23.792.458.182.95.273 1.444.267zM14.258 40.178a12.328 12.328 0 00-.335 2.755c0 3.23 1.783 5.373 5.574 5.373 3.143 0 5.694-1.832 7.527-4.794l-1.12 4.417h6.24l3.57-14.041c.891-3.56 2.617-5.405 5.238-5.405 2.062 0 3.344 1.259 3.344 3.34a6.431 6.431 0 01-.278 1.97l-1.839 6.457a9.49 9.49 0 00-.39 2.736c0 3.064 1.839 5.31 5.684 5.31 3.29 0 5.91-2.078 7.358-7.058l-2.452-.932c-1.227 3.339-2.285 3.941-3.12 3.941-.834 0-1.284-.546-1.284-1.641a7.161 7.161 0 01.278-1.698l1.786-6.293c.401-1.293.608-2.638.614-3.99 0-4.708-2.9-7.163-6.412-7.163-3.289 0-6.632 2.912-8.304 5.979l1.224-5.505h-9.529l-1.339 4.85h4.462L28.01 39.572c-2.159 4.707-6.12 4.784-6.618 4.674-.816-.181-1.336-.485-1.336-1.532.024-.847.155-1.689.39-2.504l4.18-16.286H14.04l-1.337 4.851h4.402l-2.847 11.404z" fill="#fff"/></g><defs><clipPath id="awclip0"><path fill="#fff" d="M0 0h65v63.823H0z"/></clipPath></defs></svg><svg fill="none" viewBox="0 0 193 42" id="logos_microsoft" xmlns="http://www.w3.org/2000/svg"><path d="M192.953 18.876v-3.438h-4.214v-5.343l-.142.045-3.958 1.226-.078.024v4.049h-6.247v-2.255c0-1.05.232-1.854.689-2.39.453-.53 1.102-.8 1.93-.8.595 0 1.211.143 1.831.423l.156.07v-3.62l-.073-.027c-.579-.21-1.366-.317-2.341-.317-1.229 0-2.346.271-3.32.808a5.711 5.711 0 00-2.278 2.282c-.535.974-.806 2.1-.806 3.346v2.48h-2.935v3.437h2.935v14.48h4.212v-14.48h6.247v9.201c0 3.79 1.765 5.711 5.245 5.711.572 0 1.174-.068 1.789-.201.626-.136 1.051-.273 1.302-.418l.056-.033v-3.47l-.172.115c-.228.155-.513.28-.847.374-.335.096-.615.144-.832.144-.815 0-1.418-.223-1.793-.662-.379-.443-.57-1.218-.57-2.302v-8.46h4.214zM161.76 30.3c-1.528 0-2.734-.514-3.583-1.526-.855-1.017-1.288-2.466-1.288-4.308 0-1.899.433-3.386 1.288-4.42.85-1.029 2.044-1.55 3.549-1.55 1.461 0 2.624.498 3.456 1.481.837.989 1.262 2.464 1.262 4.386 0 1.945-.4 3.44-1.187 4.44-.783.992-1.959 1.497-3.497 1.497zm.188-15.293c-2.917 0-5.234.866-6.885 2.573-1.651 1.708-2.488 4.07-2.488 7.024 0 2.806.817 5.062 2.429 6.706 1.611 1.645 3.804 2.478 6.517 2.478 2.828 0 5.099-.878 6.75-2.61 1.651-1.729 2.487-4.07 2.487-6.954 0-2.849-.785-5.122-2.333-6.755-1.55-1.634-3.729-2.462-6.477-2.462zm-16.165 0c-1.984 0-3.625.514-4.879 1.527-1.261 1.02-1.901 2.357-1.901 3.975 0 .841.138 1.589.41 2.223a4.457 4.457 0 001.259 1.665c.558.466 1.419.954 2.56 1.451.959.4 1.675.738 2.129 1.005.445.26.76.523.938.78.173.25.261.592.261 1.015 0 1.204-.89 1.789-2.721 1.789-.679 0-1.454-.143-2.303-.427a8.605 8.605 0 01-2.358-1.211l-.175-.127v4.108l.064.03c.596.28 1.348.514 2.233.699.885.185 1.687.28 2.385.28 2.153 0 3.887-.517 5.152-1.537 1.273-1.027 1.919-2.395 1.919-4.07 0-1.208-.348-2.243-1.032-3.079-.68-.828-1.86-1.589-3.507-2.261-1.311-.533-2.151-.976-2.498-1.316-.334-.328-.504-.792-.504-1.38 0-.52.21-.938.64-1.276.433-.34 1.036-.513 1.792-.513.702 0 1.42.112 2.134.332.714.22 1.341.515 1.864.876l.172.119v-3.897l-.066-.029c-.483-.21-1.119-.388-1.893-.534a11.45 11.45 0 00-2.075-.217zm-17.761 15.292c-1.529 0-2.734-.513-3.584-1.525-.855-1.017-1.287-2.466-1.287-4.308 0-1.899.433-3.386 1.288-4.42.849-1.029 2.043-1.55 3.549-1.55 1.46 0 2.623.498 3.456 1.481.836.989 1.261 2.464 1.261 4.386 0 1.945-.399 3.44-1.187 4.44-.782.992-1.958 1.497-3.496 1.497zm.188-15.292c-2.918 0-5.235.866-6.886 2.573-1.65 1.708-2.488 4.07-2.488 7.024 0 2.807.818 5.062 2.429 6.706 1.612 1.645 3.805 2.478 6.518 2.478 2.827 0 5.098-.878 6.749-2.61 1.651-1.729 2.488-4.07 2.488-6.954 0-2.849-.785-5.122-2.334-6.755-1.55-1.634-3.729-2.462-6.476-2.462zm-15.768 3.534v-3.103h-4.161v17.918h4.161V24.19c0-1.558.349-2.838 1.037-3.806.68-.955 1.585-1.439 2.691-1.439.375 0 .796.062 1.251.186.451.123.778.257.971.398l.174.128v-4.25l-.067-.028c-.388-.167-.936-.251-1.63-.251-1.045 0-1.981.34-2.782 1.01-.704.589-1.212 1.396-1.601 2.403h-.044zm-11.612-3.534c-1.91 0-3.612.415-5.06 1.232a8.25 8.25 0 00-3.337 3.476c-.76 1.484-1.146 3.216-1.146 5.149 0 1.693.374 3.246 1.113 4.615.74 1.372 1.788 2.445 3.114 3.189 1.324.743 2.854 1.12 4.549 1.12 1.977 0 3.666-.4 5.019-1.19l.055-.032v-3.861l-.175.13a7.798 7.798 0 01-2.036 1.073c-.735.26-1.406.391-1.994.391-1.632 0-2.943-.518-3.894-1.537-.954-1.022-1.437-2.456-1.437-4.262 0-1.816.504-3.287 1.498-4.373.99-1.082 2.303-1.631 3.902-1.631 1.368 0 2.7.469 3.961 1.396l.175.128v-4.068l-.057-.033c-.474-.269-1.121-.49-1.925-.66a11.353 11.353 0 00-2.326-.252h.001zm-12.41.431h-4.16v17.918h4.16V15.439zm-2.037-7.632a2.49 2.49 0 00-1.773.704 2.339 2.339 0 00-.743 1.758c0 .686.247 1.266.735 1.722.485.456 1.084.687 1.78.687.697 0 1.298-.231 1.79-.686a2.262 2.262 0 00.744-1.723c0-.674-.244-1.259-.724-1.74-.48-.479-1.089-.722-1.81-.722zM76 14.116v19.24h4.246V8.355h-5.876l-7.47 18.57-7.25-18.57h-6.117v25h3.99v-19.24h.138l7.655 19.24h3.012l7.535-19.238H76zM19.574 19.827H0V0h19.574v19.827zM41.186 19.827H21.612V0h19.574v19.827zM19.573 41.725H0V21.9h19.573v19.826zM41.186 41.725H21.612V21.9h19.574v19.826z" fill="#fff" fill-opacity=".2"/></svg><svg fill="none" viewBox="0 0 64 57" id="logos_sketch" xmlns="http://www.w3.org/2000/svg"><g clip-path="url(#ayclip0)"><path d="M32 0L13.964 1.872 0 20.278l32 36.589 32-36.59L50.036 1.873 32 0z" fill="#FDB300"/><path d="M0 20.278l32 36.59-19.038-36.59H0zM51.038 20.278L32 56.868l32-36.59H51.038z" fill="#EB6C00"/><path d="M12.962 20.278L32 56.868l19.039-36.59H12.962z" fill="#FDAD00"/><path d="M13.964 1.872L12.96 20.278 32 0 13.964 1.872zM51.038 20.278L50.036 1.872 32 0l19.038 20.278z" fill="#FDD231"/><path d="M51.038 20.278H64L50.036 1.872l1.002 18.406zM0 20.278h12.961l1.003-18.406L0 20.278z" fill="#FDAD00"/><path d="M32 0L12.962 20.278h38.077L32 0z" fill="#FEEEB7"/></g><defs><clipPath id="ayclip0"><path fill="#fff" d="M0 0h64v56.95H0z"/></clipPath></defs></svg><svg fill="none" viewBox="0 0 194 49" id="logos_slack" xmlns="http://www.w3.org/2000/svg"><g clip-path="url(#azclip0)" fill="#fff" fill-opacity=".2"><path d="M61.986 38.403l2.42-5.592c2.616 1.942 6.09 2.952 9.525 2.952 2.537 0 4.137-.971 4.137-2.447-.039-4.116-15.184-.893-15.301-11.222-.039-5.242 4.645-9.28 11.28-9.28 3.943 0 7.886.97 10.696 3.184l-2.264 5.708c-2.576-1.631-5.777-2.796-8.822-2.796-2.068 0-3.434.97-3.434 2.213.039 4.039 15.301 1.826 15.457 11.688 0 5.359-4.567 9.126-11.125 9.126-4.801 0-9.212-1.127-12.569-3.534zm92.863-7.611l6.675 3.689a14.565 14.565 0 01-12.765 7.456c-8.08 0-14.638-6.524-14.638-14.562s6.558-14.561 14.638-14.561c5.465 0 10.266 3.028 12.765 7.455l-6.675 3.689c-1.21-2.097-3.474-3.533-6.09-3.533-3.864 0-6.987 3.106-6.987 6.95 0 3.844 3.123 6.95 6.987 6.95 2.616 0 4.88-1.436 6.089-3.533h.001zM89.037.738h8.353v40.655h-8.353V.738zm75.765 0h8.354v23.88l9.446-11.222h10.227L181.158 26.91l12.608 14.484h-10.695L173.156 29.2v12.193h-8.354V.738zM122.216 30.87v-6.873c-1.21-2.02-3.708-3.572-6.518-3.572-3.865 0-6.987 3.106-6.987 6.95 0 3.844 3.122 6.95 6.987 6.95 2.81 0 5.308-1.475 6.518-3.455zm0-17.473h8.354v27.957h-8.354v-3.3c-1.366 2.29-4.762 3.883-8.314 3.883-7.339 0-13.116-6.524-13.116-14.6 0-8.077 5.777-14.523 13.116-14.523 3.552 0 6.948 1.592 8.314 3.883v-3.301zM10.344 30.83c0 2.835-2.303 5.127-5.153 5.127a5.171 5.171 0 01-3.644-1.5A5.12 5.12 0 01.039 30.83c0-2.835 2.303-5.126 5.152-5.126h5.153v5.126zm2.576 0c0-2.834 2.303-5.125 5.153-5.125 2.85 0 5.152 2.291 5.152 5.126v12.814c0 2.834-2.303 5.125-5.152 5.125a5.17 5.17 0 01-3.645-1.5 5.119 5.119 0 01-1.507-3.625V30.83zM18.073 10.251a5.171 5.171 0 01-3.645-1.5 5.12 5.12 0 01-1.507-3.626C12.92 2.291 15.223 0 18.073 0s5.152 2.29 5.152 5.125v5.126h-5.152zm0 2.602c2.85 0 5.152 2.29 5.152 5.125s-2.303 5.126-5.152 5.126H5.153a5.171 5.171 0 01-3.645-1.5A5.118 5.118 0 010 17.978c0-2.834 2.303-5.125 5.152-5.125h12.921zM38.722 17.978c0-2.834 2.303-5.125 5.152-5.125 2.85 0 5.153 2.29 5.153 5.125s-2.303 5.126-5.153 5.126h-5.152v-5.126zm-2.577 0c0 2.835-2.302 5.126-5.152 5.126a5.171 5.171 0 01-3.645-1.5 5.12 5.12 0 01-1.507-3.626V5.125C25.84 2.291 28.144 0 30.993 0c2.85 0 5.153 2.29 5.153 5.125V17.98zM30.993 38.52c2.85 0 5.153 2.29 5.153 5.125 0 2.834-2.303 5.125-5.153 5.125a5.17 5.17 0 01-3.645-1.5 5.12 5.12 0 01-1.507-3.625v-5.126h5.152zm0-2.564a5.173 5.173 0 01-3.645-1.5 5.118 5.118 0 01-1.507-3.625c0-2.835 2.303-5.126 5.152-5.126h12.92c2.85 0 5.153 2.291 5.153 5.126 0 2.834-2.303 5.126-5.153 5.126h-12.92z"/></g><defs><clipPath id="azclip0"><path fill="#fff" d="M0 0h194v49H0z"/></clipPath></defs></svg><svg fill="none" viewBox="0 0 65 63" id="logos_visual-studio-code" xmlns="http://www.w3.org/2000/svg"><g opacity=".78"><mask id="baa" maskUnits="userSpaceOnUse" x="0" y="0" width="65" height="63"><path d="M45.913 62.497a4.125 4.125 0 003.212-.12l13.33-6.25a4.014 4.014 0 001.672-1.456 3.87 3.87 0 00.62-2.098v-42.38c0-.742-.215-1.47-.62-2.098a4.014 4.014 0 00-1.671-1.455L49.126.39A4.126 4.126 0 0046.7.056a4.068 4.068 0 00-2.175 1.095l-25.52 22.686-11.115-8.222a2.744 2.744 0 00-1.75-.531 2.733 2.733 0 00-1.693.68l-3.565 3.16a2.585 2.585 0 00-.003 3.888l9.64 8.57-9.64 8.57a2.585 2.585 0 00.003 3.887L4.448 47a2.732 2.732 0 001.694.681 2.743 2.743 0 001.749-.531l11.116-8.222 25.52 22.686c.394.385.866.685 1.386.883zm2.657-45.436L29.207 31.383 48.57 45.705V17.06z" fill="#fff"/></mask><g mask="url(#baa)"><path d="M62.495 6.65L49.155.39a4.128 4.128 0 00-2.426-.333 4.07 4.07 0 00-2.176 1.095L.88 39.952a2.584 2.584 0 00.003 3.888L4.451 47a2.735 2.735 0 001.694.681c.63.028 1.249-.16 1.75-.531L60.489 8.273c1.764-1.304 4.299-.078 4.299 2.08v-.151c0-.742-.216-1.47-.62-2.098a4.013 4.013 0 00-1.672-1.455z" fill="#0065A9"/><path d="M62.495 56.116l-13.34 6.259a4.13 4.13 0 01-2.426.333 4.07 4.07 0 01-2.176-1.095L.88 22.813a2.584 2.584 0 01.003-3.888l3.568-3.16a2.735 2.735 0 011.695-.681c.629-.027 1.248.16 1.75.532l52.592 38.876c1.764 1.304 4.299.078 4.299-2.08v.151a3.87 3.87 0 01-.62 2.098 4.013 4.013 0 01-1.672 1.455z" fill="#007ACC"/><path d="M49.113 62.38a4.13 4.13 0 01-2.426.333 4.072 4.072 0 01-2.176-1.096c1.493 1.455 4.046.424 4.046-1.634V2.79c0-2.058-2.553-3.088-4.046-1.633A4.072 4.072 0 0146.687.06a4.13 4.13 0 012.426.333l13.338 6.25a4.013 4.013 0 011.672 1.455 3.87 3.87 0 01.62 2.098v42.38c0 1.516-.89 2.897-2.292 3.554l-13.338 6.25z" fill="#1F9CF0"/><path d="M45.913 62.496a4.127 4.127 0 003.212-.12l13.33-6.25a4.013 4.013 0 001.672-1.455c.405-.629.62-1.356.62-2.099v-42.38c0-.742-.215-1.47-.62-2.098a4.014 4.014 0 00-1.671-1.455L49.126.389A4.126 4.126 0 0046.7.056a4.068 4.068 0 00-2.175 1.096l-25.52 22.686-11.115-8.222a2.744 2.744 0 00-1.75-.532 2.732 2.732 0 00-1.693.681l-3.565 3.16a2.585 2.585 0 00-.003 3.888l9.64 8.57-9.64 8.569a2.585 2.585 0 00.003 3.888L4.448 47a2.732 2.732 0 001.694.68 2.744 2.744 0 001.749-.531l11.116-8.222 25.519 22.686c.394.385.867.686 1.387.883zM48.57 17.06L29.207 31.383 48.57 45.703V17.06z" fill="url(#bapaint0_linear)" fill-opacity=".25"/></g></g><defs><linearGradient id="bapaint0_linear" x1="32.374" y1="0" x2="32.374" y2="62.765" gradientUnits="userSpaceOnUse"><stop stop-color="#fff"/><stop offset="1" stop-color="#fff" stop-opacity="0"/></linearGradient></defs></svg><svg fill="none" viewBox="0 0 194 44" id="logos_wordpress" xmlns="http://www.w3.org/2000/svg"><path d="M112.516 17.196h-7.637V18c2.389 0 2.773.508 2.773 3.515v5.42c0 3.007-.384 3.557-2.773 3.557-1.834-.254-3.071-1.228-4.778-3.091l-1.962-2.117c2.644-.466 4.052-2.117 4.052-3.98 0-2.33-2.004-4.107-5.759-4.107h-7.508V18c2.388 0 2.772.508 2.772 3.515v5.42c0 3.007-.384 3.557-2.772 3.557v.804h8.489v-.804c-2.389 0-2.772-.55-2.772-3.557v-1.524h.724l4.736 5.885h12.415c6.101 0 8.746-3.217 8.746-7.071 0-3.853-2.645-7.029-8.746-7.029zm-17.875 6.902v-5.631h1.749c1.92 0 2.773 1.312 2.773 2.837 0 1.482-.854 2.794-2.773 2.794h-1.75zm18.003 5.886h-.299c-1.535 0-1.748-.381-1.748-2.329v-9.189h2.047c4.437 0 5.247 3.218 5.247 5.717 0 2.583-.81 5.801-5.247 5.801zm-47.482-4.319l2.943-8.639c.854-2.498.47-3.217-2.26-3.217v-.847h8.02v.847c-2.688 0-3.327.635-4.394 3.726l-4.864 14.481h-.554L59.7 18.762l-4.438 13.254h-.554l-4.735-14.481c-1.024-3.091-1.707-3.726-4.181-3.726v-.847h9.47v.847c-2.516 0-3.2.593-2.303 3.217l2.858 8.639 4.31-12.703h.81l4.224 12.703zm14.504 6.182c-4.693 0-8.532-3.43-8.532-7.623 0-4.149 3.84-7.58 8.532-7.58 4.693 0 8.532 3.431 8.532 7.58 0 4.193-3.839 7.623-8.532 7.623zm0-13.889c-3.924 0-5.29 3.514-5.29 6.267 0 2.795 1.365 6.267 5.29 6.267 3.968 0 5.333-3.472 5.333-6.267 0-2.753-1.365-6.267-5.333-6.267zM131.799 30.45v.846h-9.77v-.846c2.859 0 3.371-.72 3.371-4.955V18.72c0-4.236-.512-4.912-3.371-4.912v-.848h8.831c4.394 0 6.826 2.245 6.826 5.251 0 2.922-2.432 5.208-6.826 5.208h-2.432v2.074c0 4.236.512 4.956 3.371 4.956zm-.939-15.965h-2.432v7.369h2.432c2.389 0 3.499-1.652 3.499-3.642 0-2.032-1.11-3.727-3.499-3.727zm36.135 12.831l-.213.762c-.384 1.398-.854 1.906-3.883 1.906h-.598c-2.217 0-2.602-.509-2.602-3.514v-1.948c3.328 0 3.584.296 3.584 2.498h.811v-6.31h-.811c0 2.202-.256 2.498-3.584 2.498v-4.742h2.346c3.03 0 3.499.508 3.883 1.906l.214.804h.682l-.298-3.98h-12.544V18c2.389 0 2.774.508 2.774 3.515v5.42c0 2.75-.327 3.443-2.21 3.542-1.79-.272-3.019-1.241-4.701-3.077l-1.963-2.116c2.646-.467 4.054-2.118 4.054-3.981 0-2.329-2.006-4.107-5.76-4.107h-7.508V18c2.388 0 2.773.508 2.773 3.515v5.42c0 3.006-.384 3.557-2.773 3.557v.804h8.49v-.805c-2.389 0-2.773-.55-2.773-3.556V25.41h.725l4.735 5.885h17.534l.257-3.98h-.641zm-22.611-3.218v-5.631h1.749c1.92 0 2.774 1.312 2.774 2.837 0 1.482-.854 2.794-2.774 2.794h-1.749zm31.271 7.749c-1.706 0-3.2-.89-3.84-1.44-.213.212-.597.847-.682 1.44h-.811v-5.843h.854c.341 2.794 2.303 4.445 4.821 4.445 1.365 0 2.474-.761 2.474-2.032 0-1.1-.981-1.948-2.73-2.752l-2.432-1.143c-1.707-.805-2.987-2.203-2.987-4.065 0-2.033 1.92-3.769 4.565-3.769 1.409 0 2.602.509 3.328 1.101.213-.17.427-.635.555-1.144h.811v4.998h-.896c-.3-1.99-1.408-3.642-3.669-3.642-1.195 0-2.305.678-2.305 1.737 0 1.1.897 1.693 2.945 2.625l2.345 1.143c2.049.973 2.859 2.54 2.859 3.81 0 2.668-2.347 4.531-5.205 4.531zm13.14 0c-1.707 0-3.2-.89-3.84-1.44-.213.212-.597.847-.682 1.44h-.81v-5.843h.852c.341 2.794 2.304 4.445 4.821 4.445 1.365 0 2.475-.761 2.475-2.032 0-1.1-.981-1.948-2.731-2.752l-2.432-1.143c-1.706-.805-2.986-2.203-2.986-4.065 0-2.033 1.92-3.769 4.565-3.769 1.408 0 2.602.509 3.328 1.101.213-.17.426-.635.554-1.144h.811v4.998h-.896c-.299-1.99-1.408-3.642-3.669-3.642-1.194 0-2.304.678-2.304 1.737 0 1.1.896 1.693 2.944 2.625l2.346 1.143c2.048.973 2.858 2.54 2.858 3.81 0 2.668-2.346 4.531-5.204 4.531zM3.128 21.843c0 7.418 4.344 13.827 10.642 16.865L4.763 14.217a18.55 18.55 0 00-1.635 7.627zm31.627-.945c0-2.316-.838-3.92-1.558-5.169-.957-1.543-1.854-2.85-1.854-4.393 0-1.723 1.317-3.327 3.17-3.327.084 0 .164.01.246.015a18.889 18.889 0 00-12.75-4.919 18.894 18.894 0 00-15.775 8.447c.443.013.86.022 1.215.022 1.975 0 5.032-.238 5.032-.238 1.018-.06 1.137 1.424.121 1.544 0 0-1.023.12-2.161.178l6.875 20.298 4.132-12.3-2.942-7.998c-1.016-.06-1.98-.18-1.98-.18-1.017-.058-.897-1.602.12-1.543 0 0 3.118.238 4.973.238 1.974 0 5.032-.238 5.032-.238 1.018-.06 1.138 1.424.121 1.544 0 0-1.025.12-2.16.178l6.822 20.145 1.883-6.247c.816-2.591 1.438-4.453 1.438-6.057zM22.34 23.483L16.675 39.82a19.009 19.009 0 0011.604-.299 1.648 1.648 0 01-.135-.258l-5.804-15.78zm16.236-10.63c.08.597.127 1.237.127 1.927 0 1.901-.358 4.039-1.436 6.712L31.5 38.042c5.613-3.25 9.389-9.285 9.389-16.198 0-3.258-.839-6.322-2.313-8.991zM22.009 0C9.874 0 0 9.799 0 21.843 0 33.89 9.874 43.688 22.009 43.688s22.01-9.799 22.01-21.845C44.019 9.8 34.144 0 22.009 0zm0 42.686c-11.579 0-21-9.35-21-20.843 0-11.492 9.42-20.842 21-20.842 11.578 0 20.999 9.35 20.999 20.842 0 11.493-9.42 20.843-21 20.843z" fill="#fff" fill-opacity=".2"/></svg><svg fill="none" viewBox="0 0 64 64" id="notion" xmlns="http://www.w3.org/2000/svg"><g opacity=".78"><path fill-rule="evenodd" clip-rule="evenodd" d="M11.432 58.436l-6.879-8.57A11.506 11.506 0 012 42.66V11.63c0-3.909 3.127-7.152 7.161-7.428l31.903-2.178A10.398 10.398 0 0147.59 3.77l11.208 7.579C60.805 12.704 62 14.922 62 17.288v35.278c0 3.825-3.075 6.993-7.025 7.236l-35.408 2.18c-3.152.193-6.199-1.135-8.135-3.546z" fill="#fff"/><path d="M22.496 27.157v-.406c0-1.03.825-1.884 1.888-1.955l7.743-.517 10.707 15.768V26.208l-2.756-.367v-.193c0-1.042.844-1.902 1.92-1.957l7.045-.36v1.013a.99.99 0 01-.839.965l-1.695.287v22.411l-2.128.732c-1.777.611-3.756-.043-4.774-1.578L29.212 31.474v14.972l3.2.612-.045.297c-.14.93-.942 1.633-1.913 1.676l-7.958.354c-.105-1 .644-1.894 1.678-2.002l1.047-.11V27.31l-2.725-.153z" fill="#000"/><path fill-rule="evenodd" clip-rule="evenodd" d="M41.35 5.934L9.447 8.112c-1.91.13-3.392 1.666-3.392 3.518v31.03c0 1.74.599 3.43 1.702 4.804l6.879 8.57c1.112 1.385 2.862 2.148 4.673 2.036l35.408-2.18c1.815-.111 3.228-1.566 3.228-3.324V17.288a3.3 3.3 0 00-1.471-2.729L45.265 6.981a6.239 6.239 0 00-3.915-1.047zm-30.32 6.18c-.445-.329-.233-1.013.324-1.053l30.21-2.167a4.157 4.157 0 012.698.748l6.062 4.294c.23.163.122.515-.163.53l-31.993 1.74a4.153 4.153 0 01-2.694-.801l-4.445-3.291zm5.637 9.547c0-1.039.84-1.898 1.914-1.956l33.825-1.842c1.047-.057 1.928.748 1.928 1.76V50.17c0 1.038-.837 1.896-1.909 1.957l-33.611 1.912c-1.165.066-2.147-.829-2.147-1.956V21.661z" fill="#000"/></g></svg><svg viewBox="0 0 24 24" id="photoshop_2993707" xmlns="http://www.w3.org/2000/svg"><radialGradient cx="8.833" cy="6.167" gradientUnits="userSpaceOnUse" id="bda" r="17.588"><stop offset="0" stop-color="#193458" stop-opacity=".98"/><stop offset=".933" stop-color="#210021"/></radialGradient><path fill="url(#bda)" d="M1.5 1.5h21v21h-21z"/><path d="M23 23H1V1h22v22zM2 22h20V2H2v20z" fill="#00B5EF"/><path d="M8 18H6V6h2.822c2.088 0 3.956 1.522 4.158 3.6A4.005 4.005 0 019 14H8v4zm0-6h1c1.103 0 2-.897 2-2s-.897-2-2-2H8v4zM15.237 17.977a6.486 6.486 0 01-2.184-.582l.894-1.79c.003.002.82.395 1.81.395a.744.744 0 00.235-1.449l-.483-.16c-1.02-.34-1.836-1.196-1.982-2.261A2.747 2.747 0 0116.244 9c1.45 0 2.58.544 2.703.605l-.89 1.791A4.635 4.635 0 0016.244 11a.744.744 0 00-.236 1.449l.616.205a2.741 2.741 0 011.862 2.88c-.156 1.567-1.68 2.58-3.249 2.443z" fill="#00B5EF"/><linearGradient gradientUnits="userSpaceOnUse" id="bdb" x1="-1.249" x2="25.249" y1="5.822" y2="18.178"><stop offset="0" stop-color="#fff" stop-opacity=".2"/><stop offset="1" stop-color="#fff" stop-opacity="0"/></linearGradient><path d="M23 23H1V1h22v22z" fill="url(#bdb)"/></svg><svg viewBox="0 0 48 48" id="prepos_103041" xmlns="http://www.w3.org/2000/svg"><defs><linearGradient x1="45.448" y1="92.54" x2="45.448" y2="7.017" id="bea" gradientUnits="userSpaceOnUse" gradientTransform="scale(1.00587 .99417)"><stop offset="0"/><stop offset="1" stop-opacity=".588"/></linearGradient><linearGradient xlink:href="#bea" id="bei" gradientUnits="userSpaceOnUse" gradientTransform="scale(1.00587 .99417)" x1="45.448" y1="92.54" x2="45.448" y2="7.017"/><linearGradient xlink:href="#bea" id="bek" gradientUnits="userSpaceOnUse" gradientTransform="scale(1.00587 .99417)" x1="45.448" y1="92.54" x2="45.448" y2="7.017"/><linearGradient id="bed"><stop offset="0" stop-color="#0eb474"/><stop offset="1" stop-color="#0eb474" stop-opacity="0"/></linearGradient><linearGradient id="beb"><stop offset="0" stop-color="#7db257"/><stop offset="1" stop-color="#7db257" stop-opacity="0"/></linearGradient><linearGradient gradientUnits="userSpaceOnUse" y2="356.662" x2="316.055" y1="546.635" x1="502.835" id="bec" xlink:href="#beb"/><linearGradient id="bef"><stop offset="0" stop-color="#e6e6e6"/><stop offset="1" stop-color="#f5f5f5"/></linearGradient><linearGradient id="bee"><stop offset="0" stop-color="#fff"/><stop offset="1" stop-color="#fff" stop-opacity="0"/></linearGradient><linearGradient id="beh"><stop offset="0" stop-color="#f05517"/><stop offset="1" stop-color="#f37340"/></linearGradient><linearGradient x1="45.448" y1="92.54" x2="45.448" y2="7.017" id="beg" gradientUnits="userSpaceOnUse" gradientTransform="matrix(1.00587 0 0 .99417 100 0)"><stop offset="0"/><stop offset="1" stop-opacity=".588"/></linearGradient><filter color-interpolation-filters="sRGB" id="bej"><feGaussianBlur stdDeviation="1.71"/></filter><filter color-interpolation-filters="sRGB" id="bel"><feGaussianBlur stdDeviation="1.71"/></filter></defs><path d="M46.5 24a22.696 22.696 0 01-22.696 22.696A22.696 22.696 0 011.108 24 22.696 22.696 0 0123.804 1.304 22.696 22.696 0 0146.5 24z" opacity=".99" fill="#4874b4"/><path d="M24.75 10.858l-6.305.42.447.867 2.547 1.366 1.84-1.996 1.759-.132zm5.146.354l-6.442.686c-1.283 1.237-3.955 4.165-5.446-.537l-2.451.892c.902 4.596-1.415 4.723-3.12 4.16l-.818 2.527c2.064 3.676.853 4.664-.743 5.572l.669 2.6c3.042.522 2.794 4.594 2.154 5.35l1.932 1.931 1.145-.52c-.316-1.194-.88-3.92-1.282-6.518-.407-2.673-.967-7.276 2.22-8.725 1.86-.397 4.102.294 5.14 2.476.651 1.37 1.187 3.01 1.133 4.568-.157 2.966-3.14 5.992-6.498 3.741l.817 4.236 1.761 3.281 2.548.21c.143-1.39.25-5.447 4.978-2.229l6.093-1.783 1.56-2.972-5.87 1.56c-1.045-.946-3.65-3.903.743-6.983l6.612-1.412-.37-4.16-6.316 1.04c-4.407.463-4.755-3.975-3.938-6.316l6.315-.594zm2.208 2.693l-5.674.42-.157 3.205c1.072.572 2.219 1.018 2.89 2.26l4.728-.842c-1.66-.992-2.504-2.513-1.787-5.043zm-13.05 7.243a3.436 2.433 81.987 00-.243.017 3.436 2.433 81.987 00-1.93 3.742 3.436 2.433 81.987 002.888 3.063A3.436 2.433 81.987 0021.7 24.23a3.436 2.433 81.987 00-2.646-3.081zm16.097 3.107l-5.095 1.208c-.359 1.12-.825 2.203-1.944 3.047l1.474 2.684 5.46-1.528c-1.02-1.72-2.498-3.405.105-5.411zm-10.066 9.674c-.431.844-.857 1.69-2.061 2.099l.111 1.021 5.981-1.875v-.52l-1.616.482z" fill="#fff"/></svg><svg fill="none" viewBox="0 0 64 64" id="procreate" xmlns="http://www.w3.org/2000/svg"><g opacity=".78"><path d="M4 24.267c0-7.094 0-10.641 1.38-13.35a12.667 12.667 0 015.536-5.536C13.626 4 17.173 4 24.266 4h15.467c7.094 0 10.641 0 13.35 1.38a12.667 12.667 0 015.536 5.536C60 13.626 60 17.173 60 24.266v15.467c0 7.094 0 10.641-1.38 13.35a12.666 12.666 0 01-5.536 5.536C50.374 60 46.827 60 39.734 60H24.266c-7.094 0-10.641 0-13.35-1.38a12.667 12.667 0 01-5.536-5.536C4 50.374 4 46.827 4 39.734V24.266z" fill="#1E252B"/><path d="M19.733 32.8c-7.8 5.74-9.333 14.133-9.333 21.133.356-2.089 1.987-6.986 5.667-9.866 5.466-4.279 15.466-2.87 26.4-10.134 10.933-7.264 12-16.733 10.6-24-.973 7.012-4.293 10.068-8.867 12.8-9.933 5.934-16.133 3.934-24.467 10.067z" fill="url(#bfpaint0_linear)"/><path d="M19.733 32.8c-7.8 5.74-9.333 14.133-9.333 21.133.356-2.089 1.987-6.986 5.667-9.866 5.466-4.279 15.466-2.87 26.4-10.134 10.933-7.264 12-16.733 10.6-24-.973 7.012-4.293 10.068-8.867 12.8-9.933 5.934-16.133 3.934-24.467 10.067z" fill="url(#bfpaint1_linear)"/><path d="M10.493 51.064c.428-6.325 2.482-13.29 9.24-18.264 4.345-3.197 8.11-4.184 12.125-5.237 2.344-.615 4.773-1.252 7.453-2.363-.978.933-5.624 3.113-9.128 4.57-3.496 1.453-7.181 2.984-10.25 5.03-6.156 4.104-8.66 11.245-9.44 16.264z" fill="url(#bfpaint2_linear)"/><path d="M10.493 51.064c.428-6.325 2.482-13.29 9.24-18.264 4.345-3.197 8.11-4.184 12.125-5.237 2.344-.615 4.773-1.252 7.453-2.363-.978.933-5.624 3.113-9.128 4.57-3.496 1.453-7.181 2.984-10.25 5.03-6.156 4.104-8.66 11.245-9.44 16.264z" fill="url(#bfpaint3_linear)"/><path d="M48.435 28.742a13.86 13.86 0 01-2.568 1.991c-4.267 2.56-8.802 3.386-13.215 4.19-3.516.64-6.955 1.265-10.119 2.744C15.401 41 11.001 47.932 10.4 53.932v-.002c0-.458.007-.922.021-1.391.037-.744.113-1.568.24-2.446.942-4.935 3.503-11.447 9.272-15.293 2.443-1.628 5.275-2.93 8.092-4.127 2.478-.813 4.71-1.32 6.838-1.802 3.348-.759 6.435-1.459 9.804-3.204 7.068-3.663 8.92-11.19 8.422-15.617 1.057 5.61.63 12.51-4.654 18.692z" fill="url(#bfpaint4_linear)"/><path d="M48.435 28.742a13.859 13.859 0 01-2.568 1.991c-4.267 2.56-8.802 3.386-13.215 4.19-3.516.64-6.955 1.265-10.119 2.744-4.102 1.917-7.3 5.024-9.391 8.46 1.845-2.593 4.656-5.49 8.125-6.594 3.384-1.077 6.613-1.188 9.966-1.303.962-.033 1.933-.067 2.922-.124 2.664-.97 5.456-2.275 8.312-4.173 2.461-1.635 4.422-3.382 5.968-5.191z" fill="url(#bfpaint5_linear)"/><path d="M48.435 28.742a13.859 13.859 0 01-2.568 1.991c-4.267 2.56-8.802 3.386-13.215 4.19-3.516.64-6.955 1.265-10.119 2.744-4.102 1.917-7.3 5.024-9.391 8.46 1.845-2.593 4.656-5.49 8.125-6.594 3.384-1.077 6.613-1.188 9.966-1.303.962-.033 1.933-.067 2.922-.124 2.664-.97 5.456-2.275 8.312-4.173 2.461-1.635 4.422-3.382 5.968-5.191z" fill="url(#bfpaint6_linear)"/><path d="M53.089 10.05l-.022-.117c-.973 7.012-4.293 10.068-8.867 12.8a37.454 37.454 0 01-4.889 2.467c-.978.934-5.624 3.113-9.128 4.57h-.001c-.713.297-1.434.596-2.157.903 2.478-.813 4.71-1.32 6.837-1.802 3.35-.759 6.436-1.459 9.805-3.204 7.068-3.663 8.92-11.19 8.422-15.617z" fill="url(#bfpaint7_linear)"/><path d="M53.089 10.05l-.022-.117c-.973 7.012-4.293 10.068-8.867 12.8a37.454 37.454 0 01-4.889 2.467c-.978.934-5.624 3.113-9.128 4.57h-.001c-.713.297-1.434.596-2.157.903 2.478-.813 4.71-1.32 6.837-1.802 3.35-.759 6.436-1.459 9.805-3.204 7.068-3.663 8.92-11.19 8.422-15.617z" fill="url(#bfpaint8_linear)"/></g><defs><linearGradient id="bfpaint0_linear" x1="34.8" y1="36.4" x2="11.733" y2="52.933" gradientUnits="userSpaceOnUse"><stop stop-color="#FE5004"/><stop offset=".603" stop-color="#FFB915"/><stop offset="1" stop-color="#FFFC41"/></linearGradient><linearGradient id="bfpaint1_linear" x1="25.667" y1="37.8" x2="25.8" y2="40.2" gradientUnits="userSpaceOnUse"><stop stop-color="#FD3E00"/><stop offset="1" stop-color="#FD4400" stop-opacity="0"/></linearGradient><linearGradient id="bfpaint2_linear" x1="39.333" y1="24" x2="6.8" y2="52.933" gradientUnits="userSpaceOnUse"><stop stop-color="#005FC6"/><stop offset=".28" stop-color="#23A4DF"/><stop offset=".465" stop-color="#3AC2B7"/><stop offset=".641" stop-color="#60EC7A"/><stop offset=".819" stop-color="#CFFDBD"/><stop offset="1" stop-color="#D0FCB6"/></linearGradient><linearGradient id="bfpaint3_linear" x1="32.733" y1="29.533" x2="29.933" y2="27" gradientUnits="userSpaceOnUse"><stop stop-color="#0061CB"/><stop offset="1" stop-color="#067EEA" stop-opacity="0"/></linearGradient><linearGradient id="bfpaint4_linear" x1="53.2" y1="10" x2="10.4" y2="53.867" gradientUnits="userSpaceOnUse"><stop stop-color="#8E55F1"/><stop offset=".141" stop-color="#8B48DF"/><stop offset=".275" stop-color="#E04DD9"/><stop offset=".492" stop-color="#F496C8"/><stop offset=".633" stop-color="#FAD2BA"/><stop offset=".857" stop-color="#FEF7E5"/><stop offset="1" stop-color="#FFF5BF"/></linearGradient><linearGradient id="bfpaint5_linear" x1="49" y1="28.333" x2="14.067" y2="44.133" gradientUnits="userSpaceOnUse"><stop stop-color="#F41A73"/><stop offset=".4" stop-color="#FC50A3"/><stop offset=".585" stop-color="#FE9485"/><stop offset=".703" stop-color="#FFAF88"/><stop offset="1" stop-color="#FFC385"/></linearGradient><linearGradient id="bfpaint6_linear" x1="36.4" y1="33.2" x2="36.467" y2="36.4" gradientUnits="userSpaceOnUse"><stop stop-color="#9B0008"/><stop offset="1" stop-color="#EA115A" stop-opacity="0"/></linearGradient><linearGradient id="bfpaint7_linear" x1="53.2" y1="13.6" x2="21.667" y2="34.2" gradientUnits="userSpaceOnUse"><stop stop-color="#231283"/><stop offset=".363" stop-color="#7053C6"/><stop offset=".466" stop-color="#7272DB"/><stop offset=".634" stop-color="#399EE9"/><stop offset="1" stop-color="#00CFFF"/></linearGradient><linearGradient id="bfpaint8_linear" x1="45.333" y1="24" x2="46.733" y2="25.8" gradientUnits="userSpaceOnUse"><stop stop-color="#3F259D" stop-opacity="0"/><stop offset="1" stop-color="#412DAA"/></linearGradient></defs></svg><svg fill="none" viewBox="0 0 87 87" id="quotation_marks" xmlns="http://www.w3.org/2000/svg"><path d="M37.5.577l5.433 7.975c-2.498 1.603-5.48 4.095-8.95 7.476-3.312 3.437-6.552 7.428-9.72 11.973-2.955 4.442-5.018 9.107-6.187 13.994 2.163-.13 4.189.133 6.078.79 3.463 1.203 5.965 3.396 7.506 6.578 1.753 3.08 1.945 6.587.577 10.523-1.587 4.566-4.21 7.8-7.872 9.704-3.606 1.746-7.456 1.907-11.55.485C6.677 67.94 2.772 64.2 1.1 58.856-.36 53.41.033 47.458 2.276 41.003c1.477-4.25 3.91-8.963 7.296-14.138 3.544-5.12 7.718-10.022 12.522-14.704C26.897 7.478 32.033 3.617 37.5.577zm43.45 15.102l5.434 7.975c-2.498 1.602-5.482 4.095-8.95 7.476-3.313 3.437-6.552 7.428-9.72 11.973-2.956 4.443-5.018 9.107-6.188 13.994 2.163-.13 4.189.133 6.078.79 3.464 1.203 5.966 3.396 7.506 6.578 1.753 3.08 1.945 6.587.578 10.523-1.587 4.566-4.211 7.8-7.872 9.704-3.607 1.746-7.457 1.907-11.55.485-6.14-2.134-10.045-5.874-11.716-11.219-1.46-5.447-1.067-11.398 1.176-17.853 1.478-4.25 3.91-8.963 7.296-14.138 3.544-5.12 7.718-10.022 12.522-14.704 4.803-4.683 9.94-8.544 15.407-11.584z" fill="url(#bgpaint0_linear)"/><defs><linearGradient id="bgpaint0_linear" x1="60.942" y1="-3.883" x2="-257.985" y2="314.507" gradientUnits="userSpaceOnUse"><stop stop-color="#FCFCFC" stop-opacity="0"/><stop offset="1" stop-color="#fff" stop-opacity=".5"/></linearGradient></defs></svg><svg fill="none" viewBox="0 0 25 24" id="search" xmlns="http://www.w3.org/2000/svg"><path d="M11 19a8 8 0 100-16 8 8 0 000 16zM21 21l-4.35-4.35" stroke="#fff" stroke-opacity=".38" stroke-width="2" stroke-linecap="round" stroke-linejoin="round"/></svg><svg viewBox="0 0 512 512" id="slack" xmlns="http://www.w3.org/2000/svg"><path d="M187.432 271c-29.538 0-53.568 24.03-53.568 53.568v133.863c0 29.538 24.03 53.568 53.568 53.568C216.97 512 241 487.97 241 458.432V324.568C241 295.03 216.97 271 187.432 271zM103.863 271h-51.86c-28.596 0-51.86 23.265-51.86 51.86 0 28.596 23.265 51.86 51.86 51.86s51.86-23.265 51.86-51.86z" fill="#ff4340"/><path d="M0 187.432C0 216.97 24.03 241 53.568 241h133.863C216.97 241 241 216.97 241 187.432s-24.03-53.568-53.568-53.568H53.568C24.03 133.863 0 157.894 0 187.432zM189.14 103.863H241v-51.86c0-28.596-23.265-51.86-51.86-51.86-28.596 0-51.86 23.265-51.86 51.86s23.264 51.86 51.86 51.86z" fill="#36c6ff"/><path d="M324.568 241c29.538 0 53.568-24.03 53.568-53.568V53.568C378.137 24.03 354.106 0 324.568 0S271 24.03 271 53.568v133.863C271 216.97 295.03 241 324.568 241zM408.137 241h51.86c28.596 0 51.86-23.265 51.86-51.86 0-28.596-23.265-51.86-51.86-51.86s-51.86 23.265-51.86 51.86z" fill="#0dc46e"/><g fill="#fdcb02"><path d="M512 324.568C512 295.03 487.97 271 458.432 271H324.568C295.03 271 271 295.03 271 324.568s24.03 53.568 53.568 53.568h133.863c29.539.001 53.569-24.03 53.569-53.568zM322.86 408.137H271v51.86c0 28.596 23.265 51.86 51.86 51.86 28.596 0 51.86-23.265 51.86-51.86s-23.264-51.86-51.86-51.86z"/></g></svg><svg aria-hidden="true" data-prefix="fab" data-icon="twitter" viewBox="0 0 512 512" class="bjsvg-inline--fa bjfa-twitter bjfa-w-16 bjfa-9x" id="twitter" xmlns="http://www.w3.org/2000/svg"><path fill="currentColor" d="M459.37 151.716c.325 4.548.325 9.097.325 13.645 0 138.72-105.583 298.558-298.558 298.558-59.452 0-114.68-17.219-161.137-47.106 8.447.974 16.568 1.299 25.34 1.299 49.055 0 94.213-16.568 130.274-44.832-46.132-.975-84.792-31.188-98.112-72.772 6.498.974 12.995 1.624 19.818 1.624 9.421 0 18.843-1.3 27.614-3.573-48.081-9.747-84.143-51.98-84.143-102.985v-1.299c13.969 7.797 30.214 12.67 47.431 13.319-28.264-18.843-46.781-51.005-46.781-87.391 0-19.492 5.197-37.36 14.294-52.954 51.655 63.675 129.3 105.258 216.365 109.807-1.624-7.797-2.599-15.918-2.599-24.04 0-57.828 46.782-104.934 104.934-104.934 30.213 0 57.502 12.67 76.67 33.137 23.715-4.548 46.456-13.32 66.599-25.34-7.798 24.366-24.366 44.833-46.132 57.827 21.117-2.273 41.584-8.122 60.426-16.243-14.292 20.791-32.161 39.308-52.628 54.253z"/></svg><svg version="1" viewBox="0 0 32 32" id="xampp_94513" xmlns="http://www.w3.org/2000/svg"><rect fill="#fb7a24" width="28" height="28" x="-30" y="-30" rx="1.5" ry="1.5" transform="matrix(0 -1 -1 0 0 0)"/><path opacity=".2" d="M11 7a5 5 0 00-5 5 5 5 0 005 5 5 5 0 00-5 5 5 5 0 005 5 5 5 0 005-5 5 5 0 00-.018-.342 5 5 0 00.018.002 5 5 0 00.012 0A5 5 0 0016 22a5 5 0 005 5 5 5 0 005-5 5 5 0 00-5-5 5 5 0 00-.018.002 5 5 0 000-.002A5 5 0 0021 17a5 5 0 005-5 5 5 0 00-5-5 5 5 0 00-4.989 4.66 5 5 0 00-.011 0 5 5 0 00-.018 0A5 5 0 0011 7zm9.99 2.975a2 2 0 011.848 2.812c-.586 1.367-1.093 2.756-2.104 4.012C19.724 18.054 17.992 19 16 19c-1.195 0-1.183.054-1.506.434-.323.38-.857 1.526-1.662 3.367a2 2 0 11-3.664-1.602c.782-1.788 1.247-3.142 2.277-4.355C12.475 15.63 14.195 15 16 15c1.008 0 1.178-.161 1.619-.71.441-.547.934-1.657 1.543-3.077a2 2 0 011.828-1.239zM11 10a2 2 0 012 2 2 2 0 01-2 2 2 2 0 01-2-2 2 2 0 012-2zm10 10a2 2 0 012 2 2 2 0 01-2 2 2 2 0 01-2-2 2 2 0 012-2z"/><path fill="#fff" opacity=".2" d="M3.5 2C2.669 2 2 2.669 2 3.5v1C2 3.669 2.669 3 3.5 3h25c.831 0 1.5.669 1.5 1.5v-1c0-.831-.669-1.5-1.5-1.5h-25z"/><path opacity=".2" d="M2 28.5v1c0 .831.669 1.5 1.5 1.5h25c.831 0 1.5-.669 1.5-1.5v-1c0 .831-.669 1.5-1.5 1.5h-25c-.831 0-1.5-.669-1.5-1.5z"/><path fill="#fff" d="M11 6a5 5 0 00-5 5 5 5 0 005 5 5 5 0 00-5 5 5 5 0 005 5 5 5 0 005-5 5 5 0 00-.018-.342 5 5 0 00.018.002 5 5 0 00.012 0A5 5 0 0016 21a5 5 0 005 5 5 5 0 005-5 5 5 0 00-5-5 5 5 0 00-.018.002 5 5 0 000-.002A5 5 0 0021 16a5 5 0 005-5 5 5 0 00-5-5 5 5 0 00-4.989 4.66 5 5 0 00-.011 0 5 5 0 00-.018 0A5 5 0 0011 6zm9.99 2.975a2 2 0 011.848 2.812c-.586 1.367-1.093 2.756-2.104 4.012C19.724 17.054 17.992 18 16 18c-1.195 0-1.183.054-1.506.434-.323.38-.857 1.526-1.662 3.367a2 2 0 11-3.664-1.602c.782-1.788 1.247-3.142 2.277-4.355C12.475 14.63 14.195 14 16 14c1.008 0 1.178-.161 1.619-.71.441-.547.934-1.657 1.543-3.077a2 2 0 011.828-1.239zM11 9a2 2 0 012 2 2 2 0 01-2 2 2 2 0 01-2-2 2 2 0 012-2zm10 10a2 2 0 012 2 2 2 0 01-2 2 2 2 0 01-2-2 2 2 0 012-2z"/></svg><svg fill="none" viewBox="0 0 64 64" id="zeplin" xmlns="http://www.w3.org/2000/svg"><g opacity=".78" fill-rule="evenodd" clip-rule="evenodd"><path d="M12.632 40.337l-2.93 1.052-.157 8.566 10.14-3.641c-3.477-1.149-6.018-3.17-7.053-5.977z" fill="#FDBD39"/><path d="M14.165 31.276L4 34.926l5.702 6.462 2.93-1.051c-1.033-2.8-.396-5.965 1.533-9.061z" fill="#F69833"/><path d="M31.27 18.915C18.326 23.563 9.98 33.154 12.63 40.337l46.874-16.832c-2.65-7.183-15.291-9.238-28.235-4.59z" fill="#FECF33"/><path d="M40.866 44.927C53.81 40.279 62.17 30.731 59.505 23.505L12.632 40.337c2.665 7.225 15.29 9.238 28.234 4.59z" fill="#EE6723"/><path d="M59.505 23.505L12.632 40.337c.917 2.487 4.417 3.713 9.328 3.713 4.788 0 10.917-1.164 17.307-3.458 12.944-4.648 22.05-12.173 20.238-17.087z" fill="#F69833"/><path d="M50.176 19.792c-4.788 0-10.917 1.164-17.307 3.458-12.944 4.648-22.05 12.173-20.237 17.087l46.873-16.832c-.918-2.488-4.418-3.713-9.33-3.713z" fill="#FDBD39"/><path d="M47.587 50.409c-1.38 0-3.414-1.225-6.048-3.64-3.115-2.857-6.684-7.041-10.05-11.782-3.364-4.742-6.13-9.482-7.785-13.347-1.804-4.213-2.061-6.803-.765-7.7a1.757 1.757 0 011.019-.295c1.055 0 3.11.772 6.91 4.45l.083.08-.011.114c-.026.264-.05.53-.071.793l-.043.52-.372-.37c-4.095-4.055-5.898-4.493-6.483-4.493a.69.69 0 00-.395.1c-.562.388-.598 2.29 1.15 6.374 1.627 3.797 4.352 8.465 7.673 13.145 3.322 4.68 6.836 8.803 9.896 11.609 3.3 3.026 4.787 3.352 5.273 3.352a.703.703 0 00.406-.105c.593-.41.594-2.448-1.357-6.844l-.09-.201.197-.106c.196-.105.385-.21.563-.309l.235-.13.108.243c1.383 3.115 2.676 7.073.98 8.244-.285.198-.63.298-1.023.298zm0-.48v.24-.24z" fill="#EE6723"/><path d="M41.18 44.796l-.02.24c-.326 3.98-1.188 8.764-3.435 8.958a1.586 1.586 0 01-.139.006c-1.526 0-2.97-2.15-4.29-6.388-1.251-4.01-2.221-9.395-2.733-15.162-.511-5.766-.503-11.235.022-15.4.572-4.538 1.663-6.908 3.24-7.044.046-.004.095-.006.142-.006 1.108 0 2.776 1.232 4.484 6.972l-1.115.211c-.57-1.918-1.192-3.478-1.809-4.55-.57-.991-1.126-1.537-1.563-1.537-.014 0-.029 0-.043.002-.683.059-1.679 1.689-2.234 6.088-.516 4.09-.522 9.477-.018 15.169.505 5.692 1.46 10.996 2.687 14.935.55 1.764 1.154 3.217 1.745 4.204.545.91 1.072 1.41 1.485 1.41l.043-.001c.654-.057 1.886-1.753 2.405-7.72l1.147-.387z" fill="#EE6723"/></g></svg></svg>