<svg width="87" height="87" viewBox="0 0 87 87" fill="none" xmlns="http://www.w3.org/2000/svg">
<path d="M37.5006 0.57674L42.9333 8.55239C40.4355 10.1545 37.4521 12.6465 33.9828 16.0283C30.671 19.4648 27.4312 23.4557 24.2634 28.001C21.3077 32.4435 19.2453 37.1083 18.076 41.9953C20.2388 41.8648 22.2647 42.1278 24.1538 42.7844C27.6173 43.9882 30.1193 46.1812 31.66 49.3634C33.4128 52.4429 33.6052 55.9505 32.2373 59.8862C30.6505 64.4516 28.0265 67.6861 24.3653 69.5896C20.7588 71.3357 16.909 71.4974 12.8158 70.0748C6.67612 67.9408 2.77067 64.2013 1.09947 58.8564C-0.359584 53.4088 0.0325993 47.4577 2.27602 41.0031C3.75339 36.7525 6.18542 32.0397 9.57211 26.8648C13.1162 21.7445 17.2901 16.8431 22.0936 12.1606C26.8972 7.47809 32.0328 3.6168 37.5006 0.57674ZM80.9509 15.6788L86.3836 23.6544C83.8858 25.2565 80.9024 27.7485 77.4331 31.1303C74.1213 34.5669 70.8815 38.5578 67.7137 43.103C64.758 47.5456 62.6956 52.2103 61.5263 57.0973C63.6891 56.9668 65.715 57.2299 67.6041 57.8865C71.0676 59.0903 73.5696 61.2832 75.1103 64.4654C76.8631 67.5449 77.0555 71.0525 75.6876 74.9882C74.1008 79.5537 71.4768 82.7881 67.8156 84.6916C64.2091 86.4377 60.3593 86.5994 56.2661 85.1768C50.1264 83.0428 46.221 79.3034 44.5498 73.9584C43.0907 68.5108 43.4829 62.5597 45.7263 56.1051C47.2037 51.8546 49.6357 47.1418 53.0224 41.9668C56.5665 36.8465 60.7404 31.9452 65.5439 27.2626C70.3475 22.5801 75.4831 18.7188 80.9509 15.6788Z" fill="url(#paint0_linear)"/>
<defs>
<linearGradient id="paint0_linear" x1="60.9416" y1="-3.88345" x2="-257.985" y2="314.507" gradientUnits="userSpaceOnUse">
<stop stop-color="#FCFCFC" stop-opacity="0"/>
<stop offset="1" stop-color="white" stop-opacity="0.5"/>
</linearGradient>
</defs>
</svg>
